<?xml version="1.0" encoding="utf-8"?>
<!-- Generator: Adobe Illustrator 21.0.2, SVG Export Plug-In . SVG Version: 6.00 Build 0)  -->
<svg version="1.1" id="Layer_1" xmlns="http://www.w3.org/2000/svg" xmlns:xlink="http://www.w3.org/1999/xlink" x="0px" y="0px"
	 viewBox="0 0 79 76.8" style="enable-background:new 0 0 79 76.8;" xml:space="preserve">
<style type="text/css">
	.st0{clip-path:url(#SVGID_2_);}
	.st1{clip-path:url(#SVGID_4_);fill:#FFA4BF;}
	.st2{clip-path:url(#SVGID_4_);fill:#FFA5BF;}
	.st3{clip-path:url(#SVGID_4_);fill:#FFA6BF;}
	.st4{clip-path:url(#SVGID_4_);fill:#FFA7BF;}
	.st5{clip-path:url(#SVGID_4_);fill:#FFA8C0;}
	.st6{clip-path:url(#SVGID_4_);fill:#FFA9C0;}
	.st7{clip-path:url(#SVGID_4_);fill:#FFAAC0;}
	.st8{clip-path:url(#SVGID_4_);fill:#FFABC0;}
	.st9{clip-path:url(#SVGID_4_);fill:#FFACC0;}
	.st10{clip-path:url(#SVGID_4_);fill:#FFADC0;}
	.st11{clip-path:url(#SVGID_4_);fill:#FFAFC0;}
	.st12{clip-path:url(#SVGID_4_);fill:#FFB0C0;}
	.st13{clip-path:url(#SVGID_4_);fill:#FFB1C1;}
	.st14{clip-path:url(#SVGID_4_);fill:#FFB2C1;}
	.st15{clip-path:url(#SVGID_4_);fill:#FFB3C1;}
	.st16{clip-path:url(#SVGID_4_);fill:#FFB4C1;}
	.st17{clip-path:url(#SVGID_4_);fill:#FFB5C1;}
	.st18{clip-path:url(#SVGID_4_);fill:#FFB6C1;}
	.st19{clip-path:url(#SVGID_4_);fill:#FFB7C1;}
	.st20{clip-path:url(#SVGID_4_);fill:#FFB8C1;}
	.st21{clip-path:url(#SVGID_4_);fill:#FFB9C2;}
	.st22{clip-path:url(#SVGID_4_);fill:#FFBAC2;}
	.st23{clip-path:url(#SVGID_4_);fill:#FFBBC2;}
	.st24{clip-path:url(#SVGID_4_);fill:#FFBCC2;}
	.st25{clip-path:url(#SVGID_4_);fill:#FFBDC2;}
	.st26{clip-path:url(#SVGID_4_);fill:#FFBEC2;}
	.st27{clip-path:url(#SVGID_4_);fill:#FFBFC2;}
	.st28{clip-path:url(#SVGID_4_);fill:#FFC0C3;}
	.st29{clip-path:url(#SVGID_4_);fill:#FFC1C3;}
	.st30{clip-path:url(#SVGID_4_);fill:#FFC2C3;}
	.st31{clip-path:url(#SVGID_4_);fill:#FFC3C3;}
	.st32{clip-path:url(#SVGID_4_);fill:#FFC4C3;}
	.st33{fill:#FFFFFF;}
</style>
<g>
	<g>
		<defs>
			<path id="SVGID_1_" d="M38.3,0.7c-6.7,1-11.9,6.6-12.2,13.6l-0.3,6.2l-8.1-2c-7.3-1.8-14.8,2.7-16.6,10l-0.4,1.5
				c-0.4,1.7-0.5,3.5-0.3,5.2l0,0c0.8,5.4,4.7,10,10.3,11.4l4.4,1.1l-3.7,6c-4.1,6.7-1.9,15.5,4.8,19.6l0.3,0.2
				c6.7,4.1,15.5,1.9,19.6-4.8l3.2-5.3l4.2,6.3c3.1,4.6,8.5,6.8,13.7,6.2l0.2,0c2-0.3,4-1,5.8-2.2l0.4-0.3
				c6.5-4.4,8.2-13.2,3.9-19.7l-3.4-5l4.5-1.4c6.7-2.1,10.8-8.8,9.8-15.5l0-0.1c-0.1-0.8-0.3-1.5-0.5-2.3L78,28.8
				c-2.4-7.5-10.4-11.7-17.9-9.3l-5.3,1.7l0.2-5.8c0.3-7.9-5.9-14.6-13.7-14.9l-0.3,0c-0.8,0-1.6,0-2.4,0.1L38.3,0.7z"/>
		</defs>
		<clipPath id="SVGID_2_">
			<use xlink:href="#SVGID_1_"  style="overflow:visible;"/>
		</clipPath>
		<g class="st0">
			<defs>
				
					<rect id="SVGID_3_" x="1.4" y="0.8" transform="matrix(0.9903 -0.1387 0.1387 0.9903 -5.0628 5.9776)" width="77.9" height="77.1"/>
			</defs>
			<clipPath id="SVGID_4_">
				<use xlink:href="#SVGID_3_"  style="overflow:visible;"/>
			</clipPath>
			
				<rect x="-0.6" y="-1.3" transform="matrix(0.9964 -8.512820e-02 8.512820e-02 0.9964 -3.2005 3.5785)" class="st1" width="82" height="81.2"/>
			
				<ellipse transform="matrix(0.9903 -0.1387 0.1387 0.9903 -5.0633 5.9784)" class="st1" cx="40.4" cy="39.3" rx="38.7" ry="38.7"/>
			<ellipse transform="matrix(0.9903 -0.1387 0.1387 0.9903 -5.0626 5.9775)" class="st1" cx="40.4" cy="39.3" rx="36" ry="36"/>
			
				<ellipse transform="matrix(0.9903 -0.1387 0.1387 0.9903 -5.0644 5.9799)" class="st1" cx="40.4" cy="39.3" rx="33.3" ry="33.3"/>
			
				<ellipse transform="matrix(0.9903 -0.1387 0.1387 0.9903 -5.0629 5.9779)" class="st2" cx="40.4" cy="39.3" rx="32.2" ry="32.2"/>
			
				<ellipse transform="matrix(0.9903 -0.1387 0.1387 0.9903 -5.0638 5.9792)" class="st3" cx="40.4" cy="39.3" rx="31.2" ry="31.2"/>
			
				<ellipse transform="matrix(0.9903 -0.1387 0.1387 0.9903 -5.0636 5.9787)" class="st4" cx="40.4" cy="39.3" rx="30.1" ry="30.1"/>
			
				<ellipse transform="matrix(0.9903 -0.1387 0.1387 0.9903 -5.0631 5.9783)" class="st5" cx="40.4" cy="39.3" rx="29.1" ry="29.1"/>
			
				<ellipse transform="matrix(0.9903 -0.1387 0.1387 0.9903 -5.0642 5.9797)" class="st6" cx="40.4" cy="39.3" rx="28.1" ry="28.1"/>
			<ellipse transform="matrix(0.9903 -0.1387 0.1387 0.9903 -5.0624 5.9772)" class="st7" cx="40.4" cy="39.3" rx="27" ry="27"/>
			<ellipse transform="matrix(0.9903 -0.1387 0.1387 0.9903 -5.0636 5.9788)" class="st8" cx="40.4" cy="39.3" rx="26" ry="26"/>
			
				<ellipse transform="matrix(0.9903 -0.1388 0.1388 0.9903 -5.0648 5.9803)" class="st9" cx="40.4" cy="39.3" rx="24.9" ry="24.9"/>
			
				<ellipse transform="matrix(0.9903 -0.1387 0.1387 0.9903 -5.0628 5.9777)" class="st10" cx="40.4" cy="39.3" rx="23.9" ry="23.9"/>
			
				<ellipse transform="matrix(0.9903 -0.1387 0.1387 0.9903 -5.064 5.9794)" class="st11" cx="40.4" cy="39.3" rx="22.9" ry="22.9"/>
			
				<ellipse transform="matrix(0.9903 -0.1387 0.1387 0.9903 -5.0618 5.9764)" class="st12" cx="40.4" cy="39.3" rx="21.8" ry="21.8"/>
			
				<ellipse transform="matrix(0.9903 -0.1387 0.1387 0.9903 -5.0632 5.9784)" class="st13" cx="40.4" cy="39.3" rx="20.8" ry="20.8"/>
			
				<ellipse transform="matrix(0.9903 -0.1387 0.1387 0.9903 -5.0647 5.9804)" class="st14" cx="40.4" cy="39.3" rx="19.7" ry="19.7"/>
			
				<ellipse transform="matrix(0.9903 -0.1387 0.1387 0.9903 -5.0621 5.9768)" class="st15" cx="40.4" cy="39.3" rx="18.7" ry="18.7"/>
			
				<ellipse transform="matrix(0.9903 -0.1387 0.1387 0.9903 -5.0637 5.9791)" class="st16" cx="40.4" cy="39.3" rx="17.7" ry="17.7"/>
			
				<ellipse transform="matrix(0.9903 -0.1388 0.1388 0.9903 -5.0655 5.9814)" class="st17" cx="40.4" cy="39.3" rx="16.6" ry="16.6"/>
			
				<ellipse transform="matrix(0.9903 -0.1387 0.1387 0.9903 -5.0624 5.9774)" class="st18" cx="40.4" cy="39.3" rx="15.6" ry="15.6"/>
			
				<ellipse transform="matrix(0.9903 -0.1387 0.1387 0.9903 -5.0644 5.9801)" class="st19" cx="40.4" cy="39.3" rx="14.6" ry="14.6"/>
			
				<ellipse transform="matrix(0.9903 -0.1386 0.1386 0.9903 -5.061 5.9752)" class="st20" cx="40.4" cy="39.3" rx="13.5" ry="13.5"/>
			
				<ellipse transform="matrix(0.9903 -0.1387 0.1387 0.9903 -5.0632 5.9782)" class="st21" cx="40.4" cy="39.3" rx="12.5" ry="12.5"/>
			
				<ellipse transform="matrix(0.9903 -0.1388 0.1388 0.9903 -5.0658 5.9817)" class="st22" cx="40.4" cy="39.3" rx="11.4" ry="11.4"/>
			
				<ellipse transform="matrix(0.9903 -0.1386 0.1386 0.9903 -5.0612 5.9755)" class="st23" cx="40.4" cy="39.3" rx="10.4" ry="10.4"/>
			<ellipse transform="matrix(0.9903 -0.1387 0.1387 0.9903 -5.0643 5.9799)" class="st24" cx="40.4" cy="39.3" rx="9.4" ry="9.4"/>
			<ellipse transform="matrix(0.9903 -0.1387 0.1387 0.9903 -5.0633 5.9784)" class="st25" cx="40.4" cy="39.3" rx="8.3" ry="8.3"/>
			<ellipse transform="matrix(0.9903 -0.1387 0.1387 0.9903 -5.0618 5.9765)" class="st26" cx="40.4" cy="39.3" rx="7.3" ry="7.3"/>
			<ellipse transform="matrix(0.9903 -0.1388 0.1388 0.9903 -5.0664 5.9827)" class="st27" cx="40.4" cy="39.3" rx="6.2" ry="6.2"/>
			<ellipse transform="matrix(0.9904 -0.1385 0.1385 0.9904 -5.0573 5.9703)" class="st28" cx="40.4" cy="39.3" rx="5.2" ry="5.2"/>
			<ellipse transform="matrix(0.9903 -0.1387 0.1387 0.9903 -5.063 5.9781)" class="st29" cx="40.4" cy="39.3" rx="4.2" ry="4.2"/>
			<ellipse transform="matrix(0.9903 -0.139 0.139 0.9903 -5.0724 5.9908)" class="st30" cx="40.4" cy="39.3" rx="3.1" ry="3.1"/>
			<ellipse transform="matrix(0.9904 -0.1384 0.1384 0.9904 -5.0539 5.9656)" class="st31" cx="40.4" cy="39.3" rx="2.1" ry="2.1"/>
			<ellipse transform="matrix(0.9903 -0.139 0.139 0.9903 -5.0731 5.9918)" class="st32" cx="40.4" cy="39.3" rx="1" ry="1"/>
		</g>
	</g>
	<g>
		<g>
			<g>
				<g>
					
						<ellipse transform="matrix(0.3439 -0.939 0.939 0.3439 -12.0367 64.158)" class="st33" cx="39.9" cy="40.7" rx="6.4" ry="6.4"/>
					<g>
						<path class="st33" d="M48,24.3c0.5-0.9,0-2.3-1.4-2.7c-0.9-0.5-2.3,0-2.7,1.4c-0.5,0.9,0,1.8,0.9,2.3L40.2,38l0.9,0.5
							l4.6-12.8C46.6,25.6,47.5,25.2,48,24.3z"/>
						<path class="st33" d="M48,24.3c0.5-0.9,0-2.3-1.4-2.7c-0.9-0.5-2.3,0-2.7,1.4c-0.5,0.9,0,1.8,0.9,2.3L40.2,38l0.9,0.5
							l4.6-12.8C46.6,25.6,47.5,25.2,48,24.3z"/>
						<path class="st33" d="M48,24.3c0.5-0.9,0-2.3-1.4-2.7c-0.9-0.5-2.3,0-2.7,1.4c-0.5,0.9,0,1.8,0.9,2.3L40.2,38l0.9,0.5
							l4.6-12.8C46.6,25.6,47.5,25.2,48,24.3z"/>
					</g>
					<g>
						<path class="st33" d="M38.8,22.5c0-1.4-1.4-1.8-2.3-1.8c-1.4,0-1.8,1.4-1.8,2.3s0.9,1.8,1.8,1.8L38.8,38h0.9l-2.3-13.2
							C38.4,24.3,39.3,23.4,38.8,22.5z"/>
						<path class="st33" d="M38.8,22.5c0-1.4-1.4-1.8-2.3-1.8c-1.4,0-1.8,1.4-1.8,2.3s0.9,1.8,1.8,1.8L38.8,38h0.9l-2.3-13.2
							C38.4,24.3,39.3,23.4,38.8,22.5z"/>
						<path class="st33" d="M38.8,22.5c0-1.4-1.4-1.8-2.3-1.8c-1.4,0-1.8,1.4-1.8,2.3s0.9,1.8,1.8,1.8L38.8,38h0.9l-2.3-13.2
							C38.4,24.3,39.3,23.4,38.8,22.5z"/>
					</g>
					<g>
						<path class="st33" d="M30.2,25.2c-0.9-0.9-2.3-0.9-3.2-0.5c-0.9,0.9-0.9,2.3-0.5,3.2c0.5,0.9,1.8,0.9,2.7,0.5l8.7,10.5
							l0.9-0.9l-8.7-10.5C30.6,27,30.6,25.6,30.2,25.2z"/>
						<path class="st33" d="M30.2,25.2c-0.9-0.9-2.3-0.9-3.2-0.5c-0.9,0.9-0.9,2.3-0.5,3.2c0.5,0.9,1.8,0.9,2.7,0.5l8.7,10.5
							l0.9-0.9l-8.7-10.5C30.6,27,30.6,25.6,30.2,25.2z"/>
						<path class="st33" d="M30.2,25.2c-0.9-0.9-2.3-0.9-3.2-0.5c-0.9,0.9-0.9,2.3-0.5,3.2c0.5,0.9,1.8,0.9,2.7,0.5l8.7,10.5
							l0.9-0.9l-8.7-10.5C30.6,27,30.6,25.6,30.2,25.2z"/>
					</g>
					<g>
						<path class="st33" d="M23.8,32c-0.9-0.5-2.3,0-2.7,1.4c-0.5,0.9,0,2.3,1.4,2.7c0.9,0.5,1.8,0,2.3-0.9l12.8,4.6l0.5-0.9
							l-12.8-4.6C25.2,32.9,24.7,32,23.8,32z"/>
						<path class="st33" d="M23.8,32c-0.9-0.5-2.3,0-2.7,1.4c-0.5,0.9,0,2.3,1.4,2.7c0.9,0.5,1.8,0,2.3-0.9l12.8,4.6l0.5-0.9
							l-12.8-4.6C25.2,32.9,24.7,32,23.8,32z"/>
						<path class="st33" d="M23.8,32c-0.9-0.5-2.3,0-2.7,1.4c-0.5,0.9,0,2.3,1.4,2.7c0.9,0.5,1.8,0,2.3-0.9l12.8,4.6l0.5-0.9
							l-12.8-4.6C25.2,32.9,24.7,32,23.8,32z"/>
					</g>
					<g>
						<path class="st33" d="M21.5,40.7c-1.4,0-1.8,1.4-1.8,2.3c0,1.4,1.4,1.8,2.3,1.8s1.8-0.9,1.8-1.8L37,40.7v-0.9l-13.2,2.3
							C23.3,41.1,22.4,40.7,21.5,40.7z"/>
						<path class="st33" d="M21.5,40.7c-1.4,0-1.8,1.4-1.8,2.3c0,1.4,1.4,1.8,2.3,1.8s1.8-0.9,1.8-1.8L37,40.7v-0.9l-13.2,2.3
							C23.3,41.1,22.4,40.7,21.5,40.7z"/>
						<path class="st33" d="M21.5,40.7c-1.4,0-1.8,1.4-1.8,2.3c0,1.4,1.4,1.8,2.3,1.8s1.8-0.9,1.8-1.8L37,40.7v-0.9l-13.2,2.3
							C23.3,41.1,22.4,40.7,21.5,40.7z"/>
					</g>
					<g>
						<path class="st33" d="M24.2,49.8c-0.9,0.9-0.9,2.3-0.5,3.2c0.9,0.9,2.3,0.9,3.2,0.5s0.9-1.8,0.5-2.7l10.5-8.7L37,41.1
							l-10.5,8.7C26.1,48.9,25.2,48.9,24.2,49.8z"/>
						<path class="st33" d="M24.2,49.8c-0.9,0.9-0.9,2.3-0.5,3.2c0.9,0.9,2.3,0.9,3.2,0.5s0.9-1.8,0.5-2.7l10.5-8.7L37,41.1
							l-10.5,8.7C26.1,48.9,25.2,48.9,24.2,49.8z"/>
						<path class="st33" d="M24.2,49.8c-0.9,0.9-0.9,2.3-0.5,3.2c0.9,0.9,2.3,0.9,3.2,0.5s0.9-1.8,0.5-2.7l10.5-8.7L37,41.1
							l-10.5,8.7C26.1,48.9,25.2,48.9,24.2,49.8z"/>
					</g>
					<g>
						<path class="st33" d="M31.1,56.2c-0.5,0.9,0,2.3,1.4,2.7c0.9,0.5,2.3,0,2.7-1.4c0.5-0.9,0-1.8-0.9-2.3l4.6-12.8l-0.9-0.5
							l-4.6,12.8C32.5,54.8,31.5,55.3,31.1,56.2z"/>
						<path class="st33" d="M31.1,56.2c-0.5,0.9,0,2.3,1.4,2.7c0.9,0.5,2.3,0,2.7-1.4c0.5-0.9,0-1.8-0.9-2.3l4.6-12.8l-0.9-0.5
							l-4.6,12.8C32.5,54.8,31.5,55.3,31.1,56.2z"/>
						<path class="st33" d="M31.1,56.2c-0.5,0.9,0,2.3,1.4,2.7c0.9,0.5,2.3,0,2.7-1.4c0.5-0.9,0-1.8-0.9-2.3l4.6-12.8l-0.9-0.5
							l-4.6,12.8C32.5,54.8,31.5,55.3,31.1,56.2z"/>
					</g>
					<g>
						<path class="st33" d="M40.2,58c0,1.4,1.4,1.8,2.3,1.8c1.4,0,1.8-1.4,1.8-2.3c0-0.9-0.9-1.8-1.8-1.8l-2.3-13.2h-0.9l2.3,13.2
							C40.7,56.2,40.2,57.1,40.2,58z"/>
						<path class="st33" d="M40.2,58c0,1.4,1.4,1.8,2.3,1.8c1.4,0,1.8-1.4,1.8-2.3c0-0.9-0.9-1.8-1.8-1.8l-2.3-13.2h-0.9l2.3,13.2
							C40.7,56.2,40.2,57.1,40.2,58z"/>
						<path class="st33" d="M40.2,58c0,1.4,1.4,1.8,2.3,1.8c1.4,0,1.8-1.4,1.8-2.3c0-0.9-0.9-1.8-1.8-1.8l-2.3-13.2h-0.9l2.3,13.2
							C40.7,56.2,40.2,57.1,40.2,58z"/>
					</g>
					<g>
						<path class="st33" d="M48.9,55.3c0.9,0.9,2.3,0.9,3.2,0.5c0.9-0.9,0.9-2.3,0.5-3.2c-0.5-0.9-1.8-0.9-2.7-0.5l-8.7-10.5
							l-0.9,0.9L48.9,53C48.4,53.5,48.4,54.8,48.9,55.3z"/>
						<path class="st33" d="M48.9,55.3c0.9,0.9,2.3,0.9,3.2,0.5c0.9-0.9,0.9-2.3,0.5-3.2c-0.5-0.9-1.8-0.9-2.7-0.5l-8.7-10.5
							l-0.9,0.9L48.9,53C48.4,53.5,48.4,54.8,48.9,55.3z"/>
						<path class="st33" d="M48.9,55.3c0.9,0.9,2.3,0.9,3.2,0.5c0.9-0.9,0.9-2.3,0.5-3.2c-0.5-0.9-1.8-0.9-2.7-0.5l-8.7-10.5
							l-0.9,0.9L48.9,53C48.4,53.5,48.4,54.8,48.9,55.3z"/>
					</g>
					<g>
						<path class="st33" d="M55.3,48.4c0.9,0.5,2.3,0,2.7-1.4c0.5-0.9,0-2.3-1.4-2.7c-0.9-0.5-1.8,0-2.3,0.9l-12.8-4.6l-0.5,0.9
							l12.8,4.6C53.9,47.5,54.3,48.4,55.3,48.4z"/>
						<path class="st33" d="M55.3,48.4c0.9,0.5,2.3,0,2.7-1.4c0.5-0.9,0-2.3-1.4-2.7c-0.9-0.5-1.8,0-2.3,0.9l-12.8-4.6l-0.5,0.9
							l12.8,4.6C53.9,47.5,54.3,48.4,55.3,48.4z"/>
						<path class="st33" d="M55.3,48.4c0.9,0.5,2.3,0,2.7-1.4c0.5-0.9,0-2.3-1.4-2.7c-0.9-0.5-1.8,0-2.3,0.9l-12.8-4.6l-0.5,0.9
							l12.8,4.6C53.9,47.5,54.3,48.4,55.3,48.4z"/>
					</g>
					<g>
						<path class="st33" d="M57.5,39.8c1.4,0,1.8-1.4,1.8-2.3c0-1.4-1.4-1.8-2.3-1.8s-1.8,0.9-1.8,1.8L42,39.8v0.9l13.2-2.3
							C55.7,39.3,56.6,39.8,57.5,39.8z"/>
						<path class="st33" d="M57.5,39.8c1.4,0,1.8-1.4,1.8-2.3c0-1.4-1.4-1.8-2.3-1.8s-1.8,0.9-1.8,1.8L42,39.8v0.9l13.2-2.3
							C55.7,39.3,56.6,39.8,57.5,39.8z"/>
						<path class="st33" d="M57.5,39.8c1.4,0,1.8-1.4,1.8-2.3c0-1.4-1.4-1.8-2.3-1.8s-1.8,0.9-1.8,1.8L42,39.8v0.9l13.2-2.3
							C55.7,39.3,56.6,39.8,57.5,39.8z"/>
					</g>
					<g>
						<path class="st33" d="M54.8,30.7c0.9-0.9,0.9-2.3,0.5-3.2c-0.9-0.9-2.3-0.9-3.2-0.5c-0.9,0.5-0.9,1.8-0.5,2.7l-10.5,9.1
							l0.9,0.9l10.5-8.7C53,31.1,53.9,31.6,54.8,30.7z"/>
						<path class="st33" d="M54.8,30.7c0.9-0.9,0.9-2.3,0.5-3.2c-0.9-0.9-2.3-0.9-3.2-0.5c-0.9,0.5-0.9,1.8-0.5,2.7l-10.5,9.1
							l0.9,0.9l10.5-8.7C53,31.1,53.9,31.6,54.8,30.7z"/>
						<path class="st33" d="M54.8,30.7c0.9-0.9,0.9-2.3,0.5-3.2c-0.9-0.9-2.3-0.9-3.2-0.5c-0.9,0.5-0.9,1.8-0.5,2.7l-10.5,9.1
							l0.9,0.9l10.5-8.7C53,31.1,53.9,31.6,54.8,30.7z"/>
					</g>
					<g>
						<path class="st33" d="M48,24.3c0.5-0.9,0-2.3-1.4-2.7c-0.9-0.5-2.3,0-2.7,1.4c-0.5,0.9,0,1.8,0.9,2.3L40.2,38l0.9,0.5
							l4.6-12.8C46.6,25.6,47.5,25.2,48,24.3z"/>
						<path class="st33" d="M48,24.3c0.5-0.9,0-2.3-1.4-2.7c-0.9-0.5-2.3,0-2.7,1.4c-0.5,0.9,0,1.8,0.9,2.3L40.2,38l0.9,0.5
							l4.6-12.8C46.6,25.6,47.5,25.2,48,24.3z"/>
						<path class="st33" d="M48,24.3c0.5-0.9,0-2.3-1.4-2.7c-0.9-0.5-2.3,0-2.7,1.4c-0.5,0.9,0,1.8,0.9,2.3L40.2,38l0.9,0.5
							l4.6-12.8C46.6,25.6,47.5,25.2,48,24.3z"/>
					</g>
				</g>
			</g>
		</g>
	</g>
</g>
</svg>
