<?xml version="1.0" encoding="utf-8"?>
<!-- Generator: Adobe Illustrator 21.0.2, SVG Export Plug-In . SVG Version: 6.00 Build 0)  -->
<svg version="1.1" id="Layer_1" xmlns="http://www.w3.org/2000/svg" xmlns:xlink="http://www.w3.org/1999/xlink" x="0px" y="0px"
	 viewBox="0 0 210 61" style="enable-background:new 0 0 210 61;" xml:space="preserve">
<style type="text/css">
	.st0{clip-path:url(#SVGID_2_);}
	.st1{clip-path:url(#SVGID_4_);fill:url(#SVGID_5_);}
	.st2{clip-path:url(#SVGID_7_);}
	.st3{clip-path:url(#SVGID_9_);}
	.st4{clip-path:url(#SVGID_45_);}
	.st5{clip-path:url(#SVGID_46_);}
	.st6{clip-path:url(#SVGID_47_);}
	.st7{clip-path:url(#SVGID_48_);}
	.st8{clip-path:url(#SVGID_49_);}
	.st9{clip-path:url(#SVGID_50_);}
	.st10{clip-path:url(#SVGID_51_);}
	.st11{clip-path:url(#SVGID_52_);}
	.st12{clip-path:url(#SVGID_53_);}
	.st13{clip-path:url(#SVGID_54_);}
	.st14{clip-path:url(#SVGID_55_);}
	.st15{clip-path:url(#SVGID_56_);}
	.st16{clip-path:url(#SVGID_57_);}
	.st17{clip-path:url(#SVGID_58_);}
	.st18{clip-path:url(#SVGID_59_);}
	.st19{clip-path:url(#SVGID_60_);}
	.st20{clip-path:url(#SVGID_61_);}
	.st21{clip-path:url(#SVGID_62_);}
	.st22{clip-path:url(#SVGID_63_);}
	.st23{clip-path:url(#SVGID_64_);}
	.st24{clip-path:url(#SVGID_65_);}
	.st25{clip-path:url(#SVGID_66_);}
	.st26{clip-path:url(#SVGID_67_);}
	.st27{clip-path:url(#SVGID_68_);}
	.st28{clip-path:url(#SVGID_69_);}
	.st29{clip-path:url(#SVGID_70_);}
	.st30{clip-path:url(#SVGID_71_);}
	.st31{clip-path:url(#SVGID_72_);}
	.st32{clip-path:url(#SVGID_73_);}
	.st33{clip-path:url(#SVGID_74_);}
	.st34{clip-path:url(#SVGID_75_);}
	.st35{clip-path:url(#SVGID_76_);}
	.st36{clip-path:url(#SVGID_77_);}
	.st37{clip-path:url(#SVGID_78_);}
	.st38{clip-path:url(#SVGID_79_);fill:#FFA4BF;}
	.st39{clip-path:url(#SVGID_79_);fill:#FFA5BF;}
	.st40{clip-path:url(#SVGID_79_);fill:#FFA6BF;}
	.st41{clip-path:url(#SVGID_79_);fill:#FFA7BF;}
	.st42{clip-path:url(#SVGID_79_);fill:#FFA8C0;}
	.st43{clip-path:url(#SVGID_79_);fill:#FFA9C0;}
	.st44{clip-path:url(#SVGID_79_);fill:#FFAAC0;}
	.st45{clip-path:url(#SVGID_79_);fill:#FFABC0;}
	.st46{clip-path:url(#SVGID_79_);fill:#FFACC0;}
	.st47{clip-path:url(#SVGID_79_);fill:#FFADC0;}
	.st48{clip-path:url(#SVGID_79_);fill:#FFAFC0;}
	.st49{clip-path:url(#SVGID_79_);fill:#FFB0C0;}
	.st50{clip-path:url(#SVGID_79_);fill:#FFB1C1;}
	.st51{clip-path:url(#SVGID_79_);fill:#FFB2C1;}
	.st52{clip-path:url(#SVGID_79_);fill:#FFB3C1;}
	.st53{clip-path:url(#SVGID_79_);fill:#FFB4C1;}
	.st54{clip-path:url(#SVGID_79_);fill:#FFB5C1;}
	.st55{clip-path:url(#SVGID_79_);fill:#FFB6C1;}
	.st56{clip-path:url(#SVGID_79_);fill:#FFB7C1;}
	.st57{clip-path:url(#SVGID_79_);fill:#FFB8C1;}
	.st58{clip-path:url(#SVGID_79_);fill:#FFB9C2;}
	.st59{clip-path:url(#SVGID_79_);fill:#FFBAC2;}
	.st60{clip-path:url(#SVGID_79_);fill:#FFBBC2;}
	.st61{clip-path:url(#SVGID_79_);fill:#FFBCC2;}
	.st62{clip-path:url(#SVGID_79_);fill:#FFBDC2;}
	.st63{clip-path:url(#SVGID_79_);fill:#FFBEC2;}
	.st64{clip-path:url(#SVGID_79_);fill:#FFBFC2;}
	.st65{clip-path:url(#SVGID_79_);fill:#FFC0C3;}
	.st66{clip-path:url(#SVGID_79_);fill:#FFC1C3;}
	.st67{clip-path:url(#SVGID_79_);fill:#FFC2C3;}
	.st68{clip-path:url(#SVGID_79_);fill:#FFC3C3;}
	.st69{clip-path:url(#SVGID_79_);fill:#FFC4C3;}
	.st70{fill:#FFFFFF;}
	.st71{enable-background:new    ;}
</style>
<g id="Artwork_3_1_">
	<g>
		<defs>
			<rect id="SVGID_1_" x="58" y="7.1" width="12.7" height="12.5"/>
		</defs>
		<clipPath id="SVGID_2_">
			<use xlink:href="#SVGID_1_"  style="overflow:visible;"/>
		</clipPath>
		<g class="st0">
			<defs>
				<path id="SVGID_3_" d="M64.9,7.1c-1.1,0-2.1,0.8-2.3,1.9l-0.2,1l-1.3-0.5C60,9,58.7,9.6,58.3,10.7l-0.1,0.2
					c-0.1,0.3-0.2,0.6-0.2,0.8v0c0,0.9,0.5,1.7,1.4,2.1l0.7,0.3L59.4,15c-0.8,1-0.7,2.5,0.3,3.3l0.1,0c1,0.8,2.5,0.7,3.3-0.3
					l0.6-0.8l0.5,1.1c0.4,0.8,1.2,1.3,2.1,1.3h0c0.3,0,0.7-0.1,1-0.2l0.1,0c1.1-0.6,1.6-1.9,1.1-3.1L68,15.4l0.8-0.1
					c1.1-0.2,1.9-1.2,1.9-2.3v0c0-0.1,0-0.2,0-0.4l0-0.1c-0.2-1.3-1.4-2.1-2.7-1.9l-0.9,0.2l0.2-0.9c0.2-1.3-0.6-2.5-1.9-2.7l0,0
					C65.2,7.1,65,7.1,64.9,7.1L64.9,7.1z"/>
			</defs>
			<clipPath id="SVGID_4_">
				<use xlink:href="#SVGID_3_"  style="overflow:visible;"/>
			</clipPath>
			
				<radialGradient id="SVGID_5_" cx="0.7887" cy="61.3348" r="0.1757" gradientTransform="matrix(35.8569 0 0 -35.8569 36.0523 2212.6101)" gradientUnits="userSpaceOnUse">
				<stop  offset="0" style="stop-color:#FFC4C3"/>
				<stop  offset="0.8583" style="stop-color:#FFA4BF"/>
				<stop  offset="1" style="stop-color:#FFA4BF"/>
			</radialGradient>
			<rect x="58" y="7.1" class="st1" width="12.7" height="12.5"/>
		</g>
	</g>
</g>
<g>
	<g>
		<g>
			<g>
				<g id="Artwork_3">
					<defs>
						<rect id="SVGID_6_" x="53.6" y="2.3" width="21.6" height="21.3"/>
					</defs>
					<clipPath id="SVGID_7_">
						<use xlink:href="#SVGID_6_"  style="overflow:visible;"/>
					</clipPath>
					<g class="st2">
						<g>
							<defs>
								<path id="SVGID_8_" d="M65.3,2.3c-1.9,0-3.5,1.4-3.9,3.3l-0.3,1.7l-2.2-0.9C57,5.6,54.7,6.6,54,8.5l-0.2,0.4
									c-0.2,0.5-0.3,0.9-0.3,1.4l0,0c0,1.5,0.9,2.9,2.4,3.5l1.2,0.5l-1.2,1.5c-1.4,1.7-1.1,4.2,0.6,5.6l0.1,0.1
									c1.7,1.4,4.2,1.1,5.6-0.6l1.1-1.3l0.9,1.9c0.7,1.4,2.1,2.2,3.5,2.2h0c0.6,0,1.1-0.1,1.7-0.4l0.1-0.1
									c1.9-0.9,2.8-3.3,1.8-5.3l-0.7-1.5l1.3-0.2c1.9-0.3,3.3-2,3.3-3.9l0,0c0-0.2,0-0.4-0.1-0.6v-0.1c-0.4-2.2-2.4-3.7-4.6-3.3
									L69,8.6L69.3,7c0.4-2.1-1-4.2-3.2-4.6H66C65.8,2.3,65.6,2.3,65.3,2.3L65.3,2.3z"/>
							</defs>
							<clipPath id="SVGID_9_">
								<use xlink:href="#SVGID_8_"  style="overflow:visible;"/>
							</clipPath>
							<g class="st3">
								<g>
									<g>
										<defs>
											<rect id="SVGID_10_" x="53.6" y="2.3" width="21.6" height="21.3"/>
										</defs>
										<defs>
											<rect id="SVGID_11_" x="53.6" y="2.3" width="21.6" height="21.3"/>
										</defs>
										<defs>
											<rect id="SVGID_12_" x="53.6" y="2.3" width="21.6" height="21.3"/>
										</defs>
										<defs>
											<rect id="SVGID_13_" x="53.6" y="2.3" width="21.6" height="21.3"/>
										</defs>
										<defs>
											<rect id="SVGID_14_" x="53.6" y="2.3" width="21.6" height="21.3"/>
										</defs>
										<defs>
											<rect id="SVGID_15_" x="53.6" y="2.3" width="21.6" height="21.3"/>
										</defs>
										<defs>
											<rect id="SVGID_16_" x="53.6" y="2.3" width="21.6" height="21.3"/>
										</defs>
										<defs>
											<rect id="SVGID_17_" x="53.6" y="2.3" width="21.6" height="21.3"/>
										</defs>
										<defs>
											<rect id="SVGID_18_" x="53.6" y="2.3" width="21.6" height="21.3"/>
										</defs>
										<defs>
											<rect id="SVGID_19_" x="53.6" y="2.3" width="21.6" height="21.3"/>
										</defs>
										<defs>
											<rect id="SVGID_20_" x="53.6" y="2.3" width="21.6" height="21.3"/>
										</defs>
										<defs>
											<rect id="SVGID_21_" x="53.6" y="2.3" width="21.6" height="21.3"/>
										</defs>
										<defs>
											<rect id="SVGID_22_" x="53.6" y="2.3" width="21.6" height="21.3"/>
										</defs>
										<defs>
											<rect id="SVGID_23_" x="53.6" y="2.3" width="21.6" height="21.3"/>
										</defs>
										<defs>
											<rect id="SVGID_24_" x="53.6" y="2.3" width="21.6" height="21.3"/>
										</defs>
										<defs>
											<rect id="SVGID_25_" x="53.6" y="2.3" width="21.6" height="21.3"/>
										</defs>
										<defs>
											<rect id="SVGID_26_" x="53.6" y="2.3" width="21.6" height="21.3"/>
										</defs>
										<defs>
											<rect id="SVGID_27_" x="53.6" y="2.3" width="21.6" height="21.3"/>
										</defs>
										<defs>
											<rect id="SVGID_28_" x="53.6" y="2.3" width="21.6" height="21.3"/>
										</defs>
										<defs>
											<rect id="SVGID_29_" x="53.6" y="2.3" width="21.6" height="21.3"/>
										</defs>
										<defs>
											<rect id="SVGID_30_" x="53.6" y="2.3" width="21.6" height="21.3"/>
										</defs>
										<defs>
											<rect id="SVGID_31_" x="53.6" y="2.3" width="21.6" height="21.3"/>
										</defs>
										<defs>
											<rect id="SVGID_32_" x="53.6" y="2.3" width="21.6" height="21.3"/>
										</defs>
										<defs>
											<rect id="SVGID_33_" x="53.6" y="2.3" width="21.6" height="21.3"/>
										</defs>
										<defs>
											<rect id="SVGID_34_" x="53.6" y="2.3" width="21.6" height="21.3"/>
										</defs>
										<defs>
											<rect id="SVGID_35_" x="53.6" y="2.3" width="21.6" height="21.3"/>
										</defs>
										<defs>
											<rect id="SVGID_36_" x="53.6" y="2.3" width="21.6" height="21.3"/>
										</defs>
										<defs>
											<rect id="SVGID_37_" x="53.6" y="2.3" width="21.6" height="21.3"/>
										</defs>
										<defs>
											<rect id="SVGID_38_" x="53.6" y="2.3" width="21.6" height="21.3"/>
										</defs>
										<defs>
											<rect id="SVGID_39_" x="53.6" y="2.3" width="21.6" height="21.3"/>
										</defs>
										<defs>
											<rect id="SVGID_40_" x="53.6" y="2.3" width="21.6" height="21.3"/>
										</defs>
										<defs>
											<rect id="SVGID_41_" x="53.6" y="2.3" width="21.6" height="21.3"/>
										</defs>
										<defs>
											<rect id="SVGID_42_" x="53.6" y="2.3" width="21.6" height="21.3"/>
										</defs>
										<defs>
											<rect id="SVGID_43_" x="53.6" y="2.3" width="21.6" height="21.3"/>
										</defs>
										<defs>
											<rect id="SVGID_44_" x="53.6" y="2.3" width="21.6" height="21.3"/>
										</defs>
										<clipPath id="SVGID_45_">
											<use xlink:href="#SVGID_10_"  style="overflow:visible;"/>
										</clipPath>
										<clipPath id="SVGID_46_" class="st4">
											<use xlink:href="#SVGID_11_"  style="overflow:visible;"/>
										</clipPath>
										<clipPath id="SVGID_47_" class="st5">
											<use xlink:href="#SVGID_12_"  style="overflow:visible;"/>
										</clipPath>
										<clipPath id="SVGID_48_" class="st6">
											<use xlink:href="#SVGID_13_"  style="overflow:visible;"/>
										</clipPath>
										<clipPath id="SVGID_49_" class="st7">
											<use xlink:href="#SVGID_14_"  style="overflow:visible;"/>
										</clipPath>
										<clipPath id="SVGID_50_" class="st8">
											<use xlink:href="#SVGID_15_"  style="overflow:visible;"/>
										</clipPath>
										<clipPath id="SVGID_51_" class="st9">
											<use xlink:href="#SVGID_16_"  style="overflow:visible;"/>
										</clipPath>
										<clipPath id="SVGID_52_" class="st10">
											<use xlink:href="#SVGID_17_"  style="overflow:visible;"/>
										</clipPath>
										<clipPath id="SVGID_53_" class="st11">
											<use xlink:href="#SVGID_18_"  style="overflow:visible;"/>
										</clipPath>
										<clipPath id="SVGID_54_" class="st12">
											<use xlink:href="#SVGID_19_"  style="overflow:visible;"/>
										</clipPath>
										<clipPath id="SVGID_55_" class="st13">
											<use xlink:href="#SVGID_20_"  style="overflow:visible;"/>
										</clipPath>
										<clipPath id="SVGID_56_" class="st14">
											<use xlink:href="#SVGID_21_"  style="overflow:visible;"/>
										</clipPath>
										<clipPath id="SVGID_57_" class="st15">
											<use xlink:href="#SVGID_22_"  style="overflow:visible;"/>
										</clipPath>
										<clipPath id="SVGID_58_" class="st16">
											<use xlink:href="#SVGID_23_"  style="overflow:visible;"/>
										</clipPath>
										<clipPath id="SVGID_59_" class="st17">
											<use xlink:href="#SVGID_24_"  style="overflow:visible;"/>
										</clipPath>
										<clipPath id="SVGID_60_" class="st18">
											<use xlink:href="#SVGID_25_"  style="overflow:visible;"/>
										</clipPath>
										<clipPath id="SVGID_61_" class="st19">
											<use xlink:href="#SVGID_26_"  style="overflow:visible;"/>
										</clipPath>
										<clipPath id="SVGID_62_" class="st20">
											<use xlink:href="#SVGID_27_"  style="overflow:visible;"/>
										</clipPath>
										<clipPath id="SVGID_63_" class="st21">
											<use xlink:href="#SVGID_28_"  style="overflow:visible;"/>
										</clipPath>
										<clipPath id="SVGID_64_" class="st22">
											<use xlink:href="#SVGID_29_"  style="overflow:visible;"/>
										</clipPath>
										<clipPath id="SVGID_65_" class="st23">
											<use xlink:href="#SVGID_30_"  style="overflow:visible;"/>
										</clipPath>
										<clipPath id="SVGID_66_" class="st24">
											<use xlink:href="#SVGID_31_"  style="overflow:visible;"/>
										</clipPath>
										<clipPath id="SVGID_67_" class="st25">
											<use xlink:href="#SVGID_32_"  style="overflow:visible;"/>
										</clipPath>
										<clipPath id="SVGID_68_" class="st26">
											<use xlink:href="#SVGID_33_"  style="overflow:visible;"/>
										</clipPath>
										<clipPath id="SVGID_69_" class="st27">
											<use xlink:href="#SVGID_34_"  style="overflow:visible;"/>
										</clipPath>
										<clipPath id="SVGID_70_" class="st28">
											<use xlink:href="#SVGID_35_"  style="overflow:visible;"/>
										</clipPath>
										<clipPath id="SVGID_71_" class="st29">
											<use xlink:href="#SVGID_36_"  style="overflow:visible;"/>
										</clipPath>
										<clipPath id="SVGID_72_" class="st30">
											<use xlink:href="#SVGID_37_"  style="overflow:visible;"/>
										</clipPath>
										<clipPath id="SVGID_73_" class="st31">
											<use xlink:href="#SVGID_38_"  style="overflow:visible;"/>
										</clipPath>
										<clipPath id="SVGID_74_" class="st32">
											<use xlink:href="#SVGID_39_"  style="overflow:visible;"/>
										</clipPath>
										<clipPath id="SVGID_75_" class="st33">
											<use xlink:href="#SVGID_40_"  style="overflow:visible;"/>
										</clipPath>
										<clipPath id="SVGID_76_" class="st34">
											<use xlink:href="#SVGID_41_"  style="overflow:visible;"/>
										</clipPath>
										<clipPath id="SVGID_77_" class="st35">
											<use xlink:href="#SVGID_42_"  style="overflow:visible;"/>
										</clipPath>
										<clipPath id="SVGID_78_" class="st36">
											<use xlink:href="#SVGID_43_"  style="overflow:visible;"/>
										</clipPath>
										<clipPath id="SVGID_79_" class="st37">
											<use xlink:href="#SVGID_44_"  style="overflow:visible;"/>
										</clipPath>
										<rect x="53.6" y="2.3" class="st38" width="21.6" height="21.3"/>
										<circle class="st38" cx="64.4" cy="12.9" r="10.7"/>
										<circle class="st38" cx="64.4" cy="12.9" r="10"/>
										<circle class="st38" cx="64.4" cy="12.9" r="9.2"/>
										<circle class="st39" cx="64.4" cy="12.9" r="8.9"/>
										<circle class="st40" cx="64.4" cy="12.9" r="8.6"/>
										<circle class="st41" cx="64.4" cy="12.9" r="8.3"/>
										<circle class="st42" cx="64.4" cy="12.9" r="8"/>
										<circle class="st43" cx="64.4" cy="12.9" r="7.8"/>
										<circle class="st44" cx="64.4" cy="12.9" r="7.5"/>
										<circle class="st45" cx="64.4" cy="12.9" r="7.2"/>
										<circle class="st46" cx="64.4" cy="12.9" r="6.9"/>
										<circle class="st47" cx="64.4" cy="12.9" r="6.6"/>
										<circle class="st48" cx="64.4" cy="12.9" r="6.3"/>
										<circle class="st49" cx="64.4" cy="12.9" r="6"/>
										<circle class="st50" cx="64.4" cy="12.9" r="5.7"/>
										<circle class="st51" cx="64.4" cy="12.9" r="5.5"/>
										<circle class="st52" cx="64.4" cy="12.9" r="5.2"/>
										<circle class="st53" cx="64.4" cy="12.9" r="4.9"/>
										<circle class="st54" cx="64.4" cy="12.9" r="4.6"/>
										<circle class="st55" cx="64.4" cy="12.9" r="4.3"/>
										<circle class="st56" cx="64.4" cy="12.9" r="4"/>
										<circle class="st57" cx="64.4" cy="12.9" r="3.7"/>
										<circle class="st58" cx="64.4" cy="12.9" r="3.4"/>
										<circle class="st59" cx="64.4" cy="12.9" r="3.2"/>
										<circle class="st60" cx="64.4" cy="12.9" r="2.9"/>
										<circle class="st61" cx="64.4" cy="12.9" r="2.6"/>
										<circle class="st62" cx="64.4" cy="12.9" r="2.3"/>
										<circle class="st63" cx="64.4" cy="12.9" r="2"/>
										<circle class="st64" cx="64.4" cy="12.9" r="1.7"/>
										<circle class="st65" cx="64.4" cy="12.9" r="1.4"/>
										<circle class="st66" cx="64.4" cy="12.9" r="1.1"/>
										<circle class="st67" cx="64.4" cy="12.9" r="0.9"/>
										<circle class="st68" cx="64.4" cy="12.9" r="0.6"/>
										<circle class="st69" cx="64.4" cy="12.9" r="0.3"/>
									</g>
								</g>
							</g>
						</g>
					</g>
				</g>
				<g>
					<ellipse transform="matrix(0.3439 -0.939 0.939 0.3439 30.0347 69.0521)" class="st70" cx="64.4" cy="13" rx="1.4" ry="1.4"/>
					<g>
						<path class="st70" d="M66.2,9.4c0.1-0.2,0-0.5-0.3-0.6c-0.2-0.1-0.5,0-0.6,0.3c-0.1,0.2,0,0.4,0.2,0.5l-1,2.8l0.2,0.1l1-2.8
							C65.9,9.7,66.1,9.6,66.2,9.4z"/>
						<path class="st70" d="M66.2,9.4c0.1-0.2,0-0.5-0.3-0.6c-0.2-0.1-0.5,0-0.6,0.3c-0.1,0.2,0,0.4,0.2,0.5l-1,2.8l0.2,0.1l1-2.8
							C65.9,9.7,66.1,9.6,66.2,9.4z"/>
						<path class="st70" d="M66.2,9.4c0.1-0.2,0-0.5-0.3-0.6c-0.2-0.1-0.5,0-0.6,0.3c-0.1,0.2,0,0.4,0.2,0.5l-1,2.8l0.2,0.1l1-2.8
							C65.9,9.7,66.1,9.6,66.2,9.4z"/>
					</g>
					<g>
						<path class="st70" d="M64.2,9c0-0.3-0.3-0.4-0.5-0.4c-0.3,0-0.4,0.3-0.4,0.5s0.2,0.4,0.4,0.4l0.5,2.9h0.2l-0.5-2.9
							C64.1,9.4,64.3,9.2,64.2,9z"/>
						<path class="st70" d="M64.2,9c0-0.3-0.3-0.4-0.5-0.4c-0.3,0-0.4,0.3-0.4,0.5s0.2,0.4,0.4,0.4l0.5,2.9h0.2l-0.5-2.9
							C64.1,9.4,64.3,9.2,64.2,9z"/>
						<path class="st70" d="M64.2,9c0-0.3-0.3-0.4-0.5-0.4c-0.3,0-0.4,0.3-0.4,0.5s0.2,0.4,0.4,0.4l0.5,2.9h0.2l-0.5-2.9
							C64.1,9.4,64.3,9.2,64.2,9z"/>
					</g>
					<g>
						<path class="st70" d="M62.3,9.6c-0.2-0.2-0.5-0.2-0.7-0.1c-0.2,0.2-0.2,0.5-0.1,0.7s0.4,0.2,0.6,0.1l1.9,2.3l0.2-0.2l-1.9-2.3
							C62.4,10,62.4,9.7,62.3,9.6z"/>
						<path class="st70" d="M62.3,9.6c-0.2-0.2-0.5-0.2-0.7-0.1c-0.2,0.2-0.2,0.5-0.1,0.7s0.4,0.2,0.6,0.1l1.9,2.3l0.2-0.2l-1.9-2.3
							C62.4,10,62.4,9.7,62.3,9.6z"/>
						<path class="st70" d="M62.3,9.6c-0.2-0.2-0.5-0.2-0.7-0.1c-0.2,0.2-0.2,0.5-0.1,0.7s0.4,0.2,0.6,0.1l1.9,2.3l0.2-0.2l-1.9-2.3
							C62.4,10,62.4,9.7,62.3,9.6z"/>
					</g>
					<g>
						<path class="st70" d="M60.9,11.1c-0.2-0.1-0.5,0-0.6,0.3c-0.1,0.2,0,0.5,0.3,0.6c0.2,0.1,0.4,0,0.5-0.2l2.8,1l0.1-0.2l-2.8-1
							C61.2,11.3,61.1,11.1,60.9,11.1z"/>
						<path class="st70" d="M60.9,11.1c-0.2-0.1-0.5,0-0.6,0.3c-0.1,0.2,0,0.5,0.3,0.6c0.2,0.1,0.4,0,0.5-0.2l2.8,1l0.1-0.2l-2.8-1
							C61.2,11.3,61.1,11.1,60.9,11.1z"/>
						<path class="st70" d="M60.9,11.1c-0.2-0.1-0.5,0-0.6,0.3c-0.1,0.2,0,0.5,0.3,0.6c0.2,0.1,0.4,0,0.5-0.2l2.8,1l0.1-0.2l-2.8-1
							C61.2,11.3,61.1,11.1,60.9,11.1z"/>
					</g>
					<g>
						<path class="st70" d="M60.4,13c-0.3,0-0.4,0.3-0.4,0.5c0,0.3,0.3,0.4,0.5,0.4s0.4-0.2,0.4-0.4l2.9-0.5v-0.2l-2.9,0.5
							C60.8,13.1,60.6,13,60.4,13z"/>
						<path class="st70" d="M60.4,13c-0.3,0-0.4,0.3-0.4,0.5c0,0.3,0.3,0.4,0.5,0.4s0.4-0.2,0.4-0.4l2.9-0.5v-0.2l-2.9,0.5
							C60.8,13.1,60.6,13,60.4,13z"/>
						<path class="st70" d="M60.4,13c-0.3,0-0.4,0.3-0.4,0.5c0,0.3,0.3,0.4,0.5,0.4s0.4-0.2,0.4-0.4l2.9-0.5v-0.2l-2.9,0.5
							C60.8,13.1,60.6,13,60.4,13z"/>
					</g>
					<g>
						<path class="st70" d="M61,15c-0.2,0.2-0.2,0.5-0.1,0.7c0.2,0.2,0.5,0.2,0.7,0.1c0.2-0.1,0.2-0.4,0.1-0.6l2.3-1.9l-0.2-0.2
							L61.5,15C61.4,14.8,61.2,14.8,61,15z"/>
						<path class="st70" d="M61,15c-0.2,0.2-0.2,0.5-0.1,0.7c0.2,0.2,0.5,0.2,0.7,0.1c0.2-0.1,0.2-0.4,0.1-0.6l2.3-1.9l-0.2-0.2
							L61.5,15C61.4,14.8,61.2,14.8,61,15z"/>
						<path class="st70" d="M61,15c-0.2,0.2-0.2,0.5-0.1,0.7c0.2,0.2,0.5,0.2,0.7,0.1c0.2-0.1,0.2-0.4,0.1-0.6l2.3-1.9l-0.2-0.2
							L61.5,15C61.4,14.8,61.2,14.8,61,15z"/>
					</g>
					<g>
						<path class="st70" d="M62.5,16.4c-0.1,0.2,0,0.5,0.3,0.6c0.2,0.1,0.5,0,0.6-0.3c0.1-0.2,0-0.4-0.2-0.5l1-2.8L64,13.3l-1,2.8
							C62.8,16.1,62.6,16.2,62.5,16.4z"/>
						<path class="st70" d="M62.5,16.4c-0.1,0.2,0,0.5,0.3,0.6c0.2,0.1,0.5,0,0.6-0.3c0.1-0.2,0-0.4-0.2-0.5l1-2.8L64,13.3l-1,2.8
							C62.8,16.1,62.6,16.2,62.5,16.4z"/>
						<path class="st70" d="M62.5,16.4c-0.1,0.2,0,0.5,0.3,0.6c0.2,0.1,0.5,0,0.6-0.3c0.1-0.2,0-0.4-0.2-0.5l1-2.8L64,13.3l-1,2.8
							C62.8,16.1,62.6,16.2,62.5,16.4z"/>
					</g>
					<g>
						<path class="st70" d="M64.5,16.8c0,0.3,0.3,0.4,0.5,0.4c0.3,0,0.4-0.3,0.4-0.5s-0.2-0.4-0.4-0.4l-0.5-2.9h-0.2l0.5,2.9
							C64.6,16.4,64.5,16.6,64.5,16.8z"/>
						<path class="st70" d="M64.5,16.8c0,0.3,0.3,0.4,0.5,0.4c0.3,0,0.4-0.3,0.4-0.5s-0.2-0.4-0.4-0.4l-0.5-2.9h-0.2l0.5,2.9
							C64.6,16.4,64.5,16.6,64.5,16.8z"/>
						<path class="st70" d="M64.5,16.8c0,0.3,0.3,0.4,0.5,0.4c0.3,0,0.4-0.3,0.4-0.5s-0.2-0.4-0.4-0.4l-0.5-2.9h-0.2l0.5,2.9
							C64.6,16.4,64.5,16.6,64.5,16.8z"/>
					</g>
					<g>
						<path class="st70" d="M66.4,16.2c0.2,0.2,0.5,0.2,0.7,0.1c0.2-0.2,0.2-0.5,0.1-0.7s-0.4-0.2-0.6-0.1l-1.9-2.3l-0.2,0.2
							l1.9,2.3C66.3,15.8,66.3,16.1,66.4,16.2z"/>
						<path class="st70" d="M66.4,16.2c0.2,0.2,0.5,0.2,0.7,0.1c0.2-0.2,0.2-0.5,0.1-0.7s-0.4-0.2-0.6-0.1l-1.9-2.3l-0.2,0.2
							l1.9,2.3C66.3,15.8,66.3,16.1,66.4,16.2z"/>
						<path class="st70" d="M66.4,16.2c0.2,0.2,0.5,0.2,0.7,0.1c0.2-0.2,0.2-0.5,0.1-0.7s-0.4-0.2-0.6-0.1l-1.9-2.3l-0.2,0.2
							l1.9,2.3C66.3,15.8,66.3,16.1,66.4,16.2z"/>
					</g>
					<g>
						<path class="st70" d="M67.8,14.7c0.2,0.1,0.5,0,0.6-0.3c0.1-0.2,0-0.5-0.3-0.6c-0.2-0.1-0.4,0-0.5,0.2l-2.8-1l-0.1,0.2l2.8,1
							C67.5,14.5,67.6,14.7,67.8,14.7z"/>
						<path class="st70" d="M67.8,14.7c0.2,0.1,0.5,0,0.6-0.3c0.1-0.2,0-0.5-0.3-0.6c-0.2-0.1-0.4,0-0.5,0.2l-2.8-1l-0.1,0.2l2.8,1
							C67.5,14.5,67.6,14.7,67.8,14.7z"/>
						<path class="st70" d="M67.8,14.7c0.2,0.1,0.5,0,0.6-0.3c0.1-0.2,0-0.5-0.3-0.6c-0.2-0.1-0.4,0-0.5,0.2l-2.8-1l-0.1,0.2l2.8,1
							C67.5,14.5,67.6,14.7,67.8,14.7z"/>
					</g>
					<g>
						<path class="st70" d="M68.3,12.8c0.3,0,0.4-0.3,0.4-0.5c0-0.3-0.3-0.4-0.5-0.4s-0.4,0.2-0.4,0.4l-2.9,0.5V13l2.9-0.5
							C67.9,12.7,68.1,12.8,68.3,12.8z"/>
						<path class="st70" d="M68.3,12.8c0.3,0,0.4-0.3,0.4-0.5c0-0.3-0.3-0.4-0.5-0.4s-0.4,0.2-0.4,0.4l-2.9,0.5V13l2.9-0.5
							C67.9,12.7,68.1,12.8,68.3,12.8z"/>
						<path class="st70" d="M68.3,12.8c0.3,0,0.4-0.3,0.4-0.5c0-0.3-0.3-0.4-0.5-0.4s-0.4,0.2-0.4,0.4l-2.9,0.5V13l2.9-0.5
							C67.9,12.7,68.1,12.8,68.3,12.8z"/>
					</g>
					<g>
						<path class="st70" d="M67.7,10.8c0.2-0.2,0.2-0.5,0.1-0.7c-0.2-0.2-0.5-0.2-0.7-0.1c-0.2,0.1-0.2,0.4-0.1,0.6l-2.3,2l0.2,0.2
							l2.3-1.9C67.3,10.9,67.5,11,67.7,10.8z"/>
						<path class="st70" d="M67.7,10.8c0.2-0.2,0.2-0.5,0.1-0.7c-0.2-0.2-0.5-0.2-0.7-0.1c-0.2,0.1-0.2,0.4-0.1,0.6l-2.3,2l0.2,0.2
							l2.3-1.9C67.3,10.9,67.5,11,67.7,10.8z"/>
						<path class="st70" d="M67.7,10.8c0.2-0.2,0.2-0.5,0.1-0.7c-0.2-0.2-0.5-0.2-0.7-0.1c-0.2,0.1-0.2,0.4-0.1,0.6l-2.3,2l0.2,0.2
							l2.3-1.9C67.3,10.9,67.5,11,67.7,10.8z"/>
					</g>
					<g>
						<path class="st70" d="M66.2,9.4c0.1-0.2,0-0.5-0.3-0.6c-0.2-0.1-0.5,0-0.6,0.3c-0.1,0.2,0,0.4,0.2,0.5l-1,2.8l0.2,0.1l1-2.8
							C65.9,9.7,66.1,9.6,66.2,9.4z"/>
						<path class="st70" d="M66.2,9.4c0.1-0.2,0-0.5-0.3-0.6c-0.2-0.1-0.5,0-0.6,0.3c-0.1,0.2,0,0.4,0.2,0.5l-1,2.8l0.2,0.1l1-2.8
							C65.9,9.7,66.1,9.6,66.2,9.4z"/>
						<path class="st70" d="M66.2,9.4c0.1-0.2,0-0.5-0.3-0.6c-0.2-0.1-0.5,0-0.6,0.3c-0.1,0.2,0,0.4,0.2,0.5l-1,2.8l0.2,0.1l1-2.8
							C65.9,9.7,66.1,9.6,66.2,9.4z"/>
					</g>
				</g>
			</g>
			<path class="st70" d="M6.6,29.4c0.4-0.9,1.6-3.5,3.6-7.8c1.9-4.3,4-8.9,6.2-13.8c0.2-0.5,0.3-1,0.3-1.4c0-0.3-0.1-0.5-0.2-0.7
				c-0.2-0.1-0.5-0.2-0.9-0.2c-0.9,0-1.7,0.3-2.3,0.9s-1.1,1.4-1.4,2.4c-0.3,1-0.5,1.9-0.5,2.9c0,0.3,0,0.7,0.1,1.1
				c-0.6,0-1-0.3-1.4-0.9c-0.3-0.6-0.5-1.2-0.5-1.9c0-1,0.3-1.9,1-2.8s1.5-1.6,2.6-2.2c1-0.5,2.1-0.8,3.1-0.8c0.8,0,1.4,0.2,1.9,0.7
				c0.5,0.4,0.9,1.2,1.1,2.3c0.3,1.1,0.4,2.7,0.4,4.7c0,1.8-0.1,4.6-0.4,8.3c-0.1,1.8-0.2,3.5-0.3,5.2c0.8-3,2.2-6.4,4.3-10.2
				s3.9-6.9,5.4-9.1c0.4-0.5,0.7-0.9,0.9-1.1c0.2-0.2,0.5-0.3,0.8-0.3s0.7,0.1,1.1,0.2c-0.6,1.4-1.1,3-1.5,4.8
				c-0.8,3-1.5,6.5-2.1,10.4c-0.7,3.9-1,6.9-1,9c0,0.5,0,1,0.1,1.2c0,0.3,0.1,0.6,0.2,0.9l0.2,0.7c-0.8,0-1.4-0.1-1.8-0.4
				s-0.7-0.6-0.8-1.2c-0.1-0.5-0.2-1.3-0.2-2.3c0-2.4,0.3-5,0.9-7.8s1.4-6.3,2.6-10.7c-1,1.3-2.1,3.2-3.4,5.6
				c-1.2,2.4-2.4,4.9-3.4,7.4c-1.1,2.5-1.9,4.6-2.4,6.2c-0.3,0.2-0.5,0.2-0.6,0.2c-0.6,0-1-0.3-1.2-1s-0.3-1.7-0.3-3.2
				c0-1.3,0.1-3.7,0.3-7.4c0.2-3.6,0.3-6,0.3-7.2c0-0.6,0-1.3-0.1-1.9c-1.6,3.8-3.1,7.2-4.2,10.1c-1.6,3.8-2.8,6.5-3.5,8.3
				c-0.8,1.7-1.5,3-2.1,3.9c-0.7,0.9-1.4,1.4-2,1.4L6.6,29.4z"/>
			<path class="st70" d="M28.8,38c-0.4-0.3-0.6-0.8-0.6-1.3c0-0.9,0.3-1.7,0.9-2.4s1.3-1.3,2.1-1.8c0.8-0.5,2.1-1.2,3.6-2
				c0.7-1.8,1.3-3.8,1.9-6.3c-0.8,1.3-1.6,2.4-2.5,3.2c-0.8,0.8-1.7,1.2-2.5,1.2c-0.7,0-1.4-0.2-1.9-0.7S29,26.7,29,25.8
				c0-0.8,0.2-1.8,0.5-3c0.4-1.2,0.8-2.2,1.3-3.1s0.9-1.3,1.2-1.3c0.2,0,0.5,0.1,0.9,0.3c0.4,0.2,0.6,0.3,0.6,0.5
				c-0.5,0.7-0.9,1.7-1.5,3.2c-0.5,1.5-0.8,2.6-0.8,3.5s0.4,1.4,1.2,1.4c0.6,0,1.3-0.4,2.2-1.3c0.8-0.8,1.6-1.9,2.4-3.1
				c0.1-0.4,0.2-0.9,0.3-1.6c0.1-0.4,0.3-0.8,0.6-1.2c0.3-0.4,0.7-0.5,1.2-0.5c0.2,0,0.4,0,0.7,0.1c0,0.6-0.3,1.9-0.8,3.8
				s-1.1,3.8-1.9,5.8c1.1-0.5,2.2-1.2,3.2-2.1c1-1,1.8-2.2,2.4-3.7l0.4,0.3c-0.8,2.7-3,4.8-6.5,6.4c-1,2.5-2.1,4.5-3.2,6
				c-1.1,1.6-2.2,2.3-3.3,2.3C29.8,38.5,29.3,38.3,28.8,38z M31.3,36.7c0.5-0.4,1-1.1,1.5-2c0.6-0.9,1.1-2.1,1.7-3.5
				c-1.2,0.7-2.1,1.3-2.8,1.7s-1.3,1-1.7,1.5c-0.4,0.6-0.7,1.2-0.7,1.9c0,0.2,0.1,0.5,0.2,0.7c0.2,0.2,0.4,0.3,0.7,0.3
				C30.5,37.4,30.8,37.2,31.3,36.7z"/>
			<path class="st70" d="M42.6,23.3c1.4-4.5,3-9.7,4.7-15.6c0.2-0.6,0.2-1,0.2-1.4c0-0.5-0.2-0.8-0.5-0.8c-0.7,0-1.4,0.3-2,1
				S43.9,8,43.5,9S43,10.8,43,11.6c0,0.5,0.1,0.9,0.2,1.2c-0.7,0-1.2-0.2-1.6-0.5c-0.3-0.4-0.5-0.8-0.5-1.4c0-1,0.4-2,1.1-3
				C43,6.9,43.9,6,45,5.3s2.1-1,2.9-1c0.8,0,1.5,0.5,2,1.4s0.9,2.1,1.1,3.6c0.3,1.4,0.5,3.3,0.8,5.7c0.5,4.3,1,8.1,1.5,11.5
				c0.3-1.9,0.8-4.4,1.6-7.4s1.6-5.8,2.4-8.4c0.8-2.6,1.3-4.2,1.6-4.7c0.2-0.4,0.4-0.7,0.9-1.1c0.4-0.4,0.8-0.6,1.3-0.6
				c-0.8,2.2-1.8,5.1-2.8,8.9c-1.1,3.8-2,7.4-2.8,10.9s-1.2,6.1-1.2,7.8c-0.7,0-1.3-0.2-1.7-0.6s-0.7-1.1-0.9-2.1
				c-0.3-1.6-0.8-4.6-1.5-9.1S49,11.9,48.5,8.9c-2.1,7.6-3.6,12.9-4.5,15.7c-0.8,2.8-1.6,4.7-2.1,5.8c-0.6,1.1-1.2,1.7-1.9,1.7
				C40.5,30.4,41.3,27.6,42.6,23.3z"/>
			<path class="st70" d="M58.4,29c-0.4-0.6-0.7-1.3-0.7-2.1c0-0.9,0.3-2.1,0.8-3.7s1.2-3,1.9-4.1c0.8-1.2,1.5-1.8,2.2-1.8
				c0.2,0,0.4,0.1,0.5,0.2s0.2,0.3,0.2,0.5c0,0.3-0.4,1.1-1.1,2.3c-0.8,1.3-1.4,2.4-1.8,3.4s-0.7,1.9-0.7,2.8c0,0.8,0.1,1.3,0.4,1.6
				c0.3,0.3,0.7,0.4,1.3,0.4c1.8,0,3.5-1.7,5.3-5.2l0.3,0.3c-0.6,1.9-1.6,3.4-2.8,4.5c-1.2,1.1-2.6,1.6-3.9,1.6
				C59.5,29.8,58.9,29.5,58.4,29z"/>
			<path class="st70" d="M66.8,29.1c-0.3-0.7-0.4-1.5-0.4-2.5c0-2.1,0.6-4.9,1.9-8.5s2.8-6.7,4.4-9.5s2.9-4.2,3.9-4.2
				c0.4,0,0.6,0.2,0.8,0.7s0.3,0.9,0.3,1.5c0,1.1-0.4,2.5-1.1,4.3c-0.8,1.8-1.8,3.5-3,5.1s-2.5,2.9-3.7,3.6c-0.4,1-0.7,2.1-0.9,3.3
				c-0.2,1.3-0.3,2.4-0.3,3.4c0,0.4,0,0.8,0.1,1.2c0.9-2.6,1.9-4.8,3.1-6.4c1.2-1.6,2.4-2.4,3.9-2.4c0.9,0,1.5,0.3,2,0.9
				c0.4,0.6,0.7,1.3,0.7,2.2c0,0.5-0.1,1-0.2,1.4c-0.1,0.5-0.3,1.1-0.6,1.8c-0.2,0.6-0.4,1.1-0.5,1.5S77,27.2,77,27.6s0.1,0.8,0.3,1
				c0.2,0.2,0.4,0.3,0.8,0.3c0.8,0,1.7-0.5,2.7-1.6s1.9-2.4,2.6-3.9l0.4,0.4c-0.8,1.7-1.7,3.2-2.9,4.3c-1.2,1.1-2.4,1.7-3.7,1.7
				c-0.8,0-1.3-0.2-1.7-0.6c-0.4-0.4-0.6-0.9-0.6-1.6c0-0.5,0.2-1.3,0.5-2.4c0.4-1.2,0.5-2.1,0.5-2.7s-0.1-1-0.4-1.2
				c-0.2-0.3-0.6-0.4-0.9-0.4c-0.8,0-1.6,0.5-2.2,1.5s-1.3,2.4-2,4.2c-0.5,1.3-1,2.3-1.3,2.9s-0.7,0.9-1.1,0.9
				C67.4,30.2,67,29.8,66.8,29.1z M73.2,14.9c1-1.5,1.8-2.9,2.4-4.4c0.6-1.4,0.9-2.5,0.9-3.1c0-0.2,0-0.3-0.1-0.3
				c-0.3,0-0.8,0.6-1.6,1.7c-0.8,1.1-1.6,2.6-2.5,4.3s-1.6,3.4-2.1,5.1C71.3,17.5,72.3,16.4,73.2,14.9z"/>
			<path class="st70" d="M81.6,29.1c-0.4-0.6-0.7-1.3-0.7-2.3c0-0.9,0.2-1.9,0.6-2.9s0.9-1.9,1.5-2.6s1.2-1,1.8-1
				c0.2,0,0.4,0.1,0.7,0.2c-0.3,0.2-0.6,0.7-1,1.5s-0.7,1.6-1,2.5s-0.4,1.6-0.4,2.1c0,1.3,0.4,2,1.2,2c0.5,0,1-0.3,1.7-0.8
				s1.3-1.2,2-2c-0.6-0.5-1.1-1.2-1.5-2.1C86.1,22.9,86,22,86,21.1c0-1.2,0.3-2.2,0.9-3s1.4-1.3,2.4-1.3c0.9,0,1.5,0.2,1.8,0.7
				c0.4,0.5,0.5,1.1,0.5,1.9c0,0.9-0.2,1.8-0.6,2.9s-1,2.1-1.7,3.2c0.4,0.2,0.8,0.3,1.3,0.3c0.7,0,1.3-0.2,2.1-0.6
				c0.7-0.4,1.2-1,1.6-1.9l0.4,0.3c-0.4,1-1.1,1.7-1.8,2.2c-0.8,0.5-1.6,0.7-2.5,0.7c-0.6,0-1.2-0.1-1.6-0.3
				c-0.8,1.1-1.7,1.9-2.6,2.6s-1.8,1-2.6,1C82.7,30,82.1,29.7,81.6,29.1z M90.2,22.2c0.4-0.9,0.5-1.8,0.5-2.6c0-0.6-0.1-1.1-0.3-1.4
				c-0.2-0.3-0.4-0.5-0.7-0.5c-0.3,0-0.6,0.2-1,0.5c-0.3,0.3-0.6,0.7-0.8,1.3c-0.2,0.5-0.3,1.1-0.3,1.8c0,0.7,0.1,1.4,0.3,2
				c0.2,0.7,0.5,1.2,0.9,1.7C89.3,24.1,89.8,23.1,90.2,22.2z"/>
			<path class="st70" d="M101.4,29c-0.4-0.4-0.6-0.9-0.6-1.6c0-0.3,0.1-0.6,0.2-1s0.2-0.8,0.3-1.2c0.1-0.4,0.3-0.8,0.4-1.3
				s0.2-0.9,0.2-1.2c0-1.1-0.5-1.7-1.4-1.7s-1.8,0.5-2.7,1.4c-0.9,0.9-1.8,1.9-2.5,3s-1.6,2.5-2.5,4c-0.4,0-0.7-0.1-1.1-0.2
				c-0.3-0.1-0.6-0.3-0.8-0.6c0-0.1,0.1-0.5,0.4-1.2c0.6-1.5,1-2.8,1.4-4s0.6-2.3,0.6-3.2c0.2-0.2,0.4-0.3,0.7-0.5
				c0.3-0.1,0.6-0.2,0.9-0.2c0.6,0,0.9,0.3,0.9,0.9c0,0.3-0.1,0.9-0.3,1.8c-0.2,0.9-0.5,1.8-0.8,2.7c1.1-1.7,2.3-3.1,3.5-4.3
				s2.4-1.7,3.6-1.7c0.8,0,1.5,0.3,1.9,0.9s0.6,1.3,0.6,2.2c0,0.5-0.1,1-0.2,1.4c-0.1,0.5-0.3,1-0.6,1.6c-0.2,0.5-0.4,0.9-0.5,1.3
				s-0.2,0.7-0.2,1.1c0,0.9,0.3,1.3,1,1.3c0.8,0,1.6-0.5,2.4-1.5s1.6-2.3,2.4-3.8l0.4,0.4c-1.6,3.9-3.6,5.8-5.9,5.8
				C102.4,29.6,101.8,29.4,101.4,29z"/>
			<path class="st70" d="M106.7,31.4c-0.5-0.3-0.7-0.7-0.7-1.2c0-0.3,0.2-1,0.5-1.9c1.7-5.4,3.2-9.7,4.3-12.9
				c1.1-3.2,2.5-6.6,4.1-10.2c-1.3,0.3-2.6,0.8-4,1.5c-0.5,0.2-0.7,0.3-0.8,0.3c-0.2,0-0.4-0.1-0.7-0.3c-0.3-0.2-0.4-0.4-0.4-0.6
				c2.9-1.3,5.4-1.9,7.6-1.9c1.4,0,2.8,0.3,4.2,0.8c1.4,0.5,2.5,1.3,3.3,2.3c0.9,1,1.3,2.2,1.3,3.6c0,2.1-0.8,3.8-2.5,5
				c-1.7,1.2-3.5,2-5.5,2.3c-2,0.4-3.7,0.6-5,0.6h-0.3c-0.1,0.4-0.8,2.8-2.1,7.3c-0.8,2.9-1.3,4.8-1.6,5.8
				C107.7,31.9,107.2,31.7,106.7,31.4z M117.4,17.1c1.7-0.6,3-1.5,4.1-2.7s1.6-2.6,1.6-4.2c0-1.7-0.6-3-1.8-3.9s-2.7-1.3-4.4-1.4
				c-1.4,2.8-3,7.2-4.8,13.3C114,18.1,115.7,17.8,117.4,17.1z"/>
			<path class="st70" d="M122.8,29c-0.4-0.6-0.7-1.5-0.7-2.6c0-2.1,0.7-4.8,2.1-8.4s3-6.7,4.7-9.5s3-4.2,3.8-4.2
				c0.3,0,0.6,0.3,0.8,0.8c0.2,0.6,0.3,1.1,0.3,1.7c0,1.1-0.4,2.6-1.3,4.6c-0.9,2-2,4.1-3.4,6.2s-2.9,3.8-4.5,5.1
				c-0.3,1.3-0.4,2.5-0.4,3.5c0,1.8,0.5,2.6,1.5,2.6c0.8,0,1.7-0.5,2.6-1.6c0.9-1.1,1.7-2.4,2.3-3.9l0.5,0.3c-2,4.2-4.1,6.3-6.4,6.3
				C124,29.9,123.3,29.6,122.8,29z M128.8,16.8c1.2-1.9,2.2-3.7,2.9-5.5c0.8-1.7,1.1-3,1.1-3.8c0-0.4-0.1-0.5-0.2-0.5
				c-0.3,0-1,0.8-2,2.3c-1,1.6-2,3.5-3.1,5.7c-1.1,2.3-1.9,4.4-2.5,6.5C126.4,20.3,127.6,18.7,128.8,16.8z"/>
			<path class="st70" d="M128.8,29.8c-0.5-0.5-0.7-1.2-0.7-2.1c0-1.3,0.5-2.9,1.5-4.5c1-1.7,2.2-3.1,3.7-4.2
				c1.5-1.2,2.9-1.7,4.3-1.7c0.9,0,1.6,0.2,2.2,0.7c0.6,0.5,0.9,1.1,0.9,1.8c0,0.5-0.1,0.9-0.4,1.1c-0.3,0.2-0.7,0.3-1.2,0.3
				c0.1-0.4,0.2-0.8,0.2-1.2c0-0.6-0.1-1-0.4-1.4c-0.3-0.4-0.7-0.5-1.3-0.5c-1,0-2.1,0.6-3.2,1.7c-1.1,1.1-2,2.5-2.8,4
				c-0.7,1.6-1.1,2.9-1.1,4c0,0.9,0.3,1.3,0.9,1.3c0.9,0,2-0.7,3.2-2.2c1.2-1.4,2.6-3.2,4-5.3c0.3,0,0.6,0.1,0.9,0.3
				c0.3,0.1,0.5,0.3,0.5,0.6c0,0.2-0.1,0.5-0.3,0.9s-0.3,0.6-0.4,0.7c-0.4,0.7-0.7,1.3-0.9,1.8s-0.3,1-0.3,1.4s0.1,0.7,0.3,1
				s0.5,0.5,0.9,0.5c0.7,0,1.5-0.5,2.5-1.4s2-2.3,3-4l0.3,0.3c-0.5,1.2-1.1,2.3-1.8,3.2c-0.8,0.9-1.6,1.7-2.4,2.2
				c-0.9,0.5-1.7,0.8-2.5,0.8s-1.4-0.2-1.8-0.7c-0.4-0.5-0.6-1-0.6-1.7c0-0.3,0-0.6,0.1-1c-1,1.4-1.9,2.4-2.8,3
				c-0.8,0.6-1.6,1-2.4,1C129.9,30.5,129.3,30.2,128.8,29.8z"/>
			<path class="st70" d="M152.1,29c-0.4-0.4-0.6-0.9-0.6-1.6c0-0.3,0.1-0.6,0.2-1c0.1-0.4,0.2-0.8,0.3-1.2c0.1-0.4,0.3-0.8,0.4-1.3
				c0.1-0.5,0.2-0.9,0.2-1.2c0-1.1-0.5-1.7-1.4-1.7s-1.8,0.5-2.7,1.4s-1.8,1.9-2.5,3s-1.6,2.5-2.5,4c-0.4,0-0.7-0.1-1.1-0.2
				c-0.3-0.1-0.6-0.3-0.8-0.6c0-0.1,0.1-0.5,0.4-1.2c0.6-1.5,1-2.8,1.4-4s0.6-2.3,0.6-3.2c0.2-0.2,0.4-0.3,0.7-0.5
				c0.3-0.1,0.6-0.2,0.9-0.2c0.6,0,0.9,0.3,0.9,0.9c0,0.3-0.1,0.9-0.3,1.8s-0.5,1.8-0.8,2.7c1.1-1.7,2.3-3.1,3.5-4.3
				s2.4-1.7,3.6-1.7c0.8,0,1.5,0.3,1.9,0.9s0.6,1.3,0.6,2.2c0,0.5-0.1,1-0.2,1.4c-0.1,0.5-0.3,1-0.6,1.6c-0.2,0.5-0.4,0.9-0.5,1.3
				s-0.2,0.7-0.2,1.1c0,0.9,0.3,1.3,1,1.3c0.8,0,1.6-0.5,2.4-1.5c0.8-1,1.6-2.3,2.4-3.8l0.4,0.4c-1.6,3.9-3.6,5.8-5.9,5.8
				C153.1,29.6,152.5,29.4,152.1,29z"/>
			<path class="st70" d="M166.3,29c-0.4-0.4-0.6-0.9-0.6-1.6c0-0.3,0.1-0.6,0.2-1c0.1-0.4,0.2-0.8,0.3-1.2c0.1-0.4,0.3-0.8,0.4-1.3
				c0.1-0.5,0.2-0.9,0.2-1.2c0-1.1-0.5-1.7-1.4-1.7s-1.8,0.5-2.7,1.4s-1.8,1.9-2.5,3s-1.6,2.5-2.5,4c-0.4,0-0.7-0.1-1.1-0.2
				c-0.3-0.1-0.6-0.3-0.8-0.6c0-0.1,0.1-0.5,0.4-1.2c0.6-1.5,1-2.8,1.4-4s0.6-2.3,0.6-3.2c0.2-0.2,0.4-0.3,0.7-0.5
				c0.3-0.1,0.6-0.2,0.9-0.2c0.6,0,0.9,0.3,0.9,0.9c0,0.3-0.1,0.9-0.3,1.8s-0.5,1.8-0.8,2.7c1.1-1.7,2.3-3.1,3.5-4.3
				s2.4-1.7,3.6-1.7c0.8,0,1.5,0.3,1.9,0.9s0.6,1.3,0.6,2.2c0,0.5-0.1,1-0.2,1.4c-0.1,0.5-0.3,1-0.6,1.6c-0.2,0.5-0.4,0.9-0.5,1.3
				s-0.2,0.7-0.2,1.1c0,0.9,0.3,1.3,1,1.3c0.8,0,1.6-0.5,2.4-1.5c0.8-1,1.6-2.3,2.4-3.8l0.4,0.4c-1.6,3.9-3.6,5.8-5.9,5.8
				C167.3,29.6,166.7,29.4,166.3,29z"/>
			<path class="st70" d="M172.4,29.3c-0.7-0.7-1.1-1.7-1.1-2.9c0-1.3,0.4-2.8,1.3-4.3c0.9-1.6,2-2.9,3.4-3.9c1.4-1.1,2.7-1.6,4-1.6
				c1.4,0,2.1,0.7,2.1,2.1c0,1.1-0.4,2.2-1.3,3.1c-0.8,1-1.9,1.8-3.3,2.4c-1.3,0.6-2.6,1-4,1.1c-0.1,0.4-0.1,0.8-0.1,1.2
				c0,0.8,0.2,1.5,0.6,2.1c0.4,0.5,1.1,0.8,2.1,0.8c1.4,0,2.8-0.6,4.2-1.7c1.4-1.2,2.6-2.6,3.5-4.3l0.4,0.3c-0.9,2-2.2,3.7-3.8,4.9
				c-1.6,1.2-3.3,1.8-5,1.8C174.2,30.4,173.1,30,172.4,29.3z M176.9,23.2c1-0.6,1.9-1.3,2.7-2.2c0.7-0.8,1.1-1.7,1.1-2.6
				c0-0.3-0.1-0.5-0.2-0.6c-0.1-0.1-0.3-0.2-0.6-0.2c-0.7,0-1.5,0.4-2.3,1.1s-1.6,1.6-2.3,2.7s-1.2,2.2-1.5,3.3
				C174.8,24.3,175.8,23.8,176.9,23.2z"/>
			<path class="st70" d="M187.3,29.2c-0.4-0.4-0.7-0.9-0.7-1.6c0-0.8,0.3-1.9,1-3.4c0.3-0.8,0.5-1.4,0.7-1.8
				c0.1-0.4,0.2-0.9,0.2-1.3c0-0.6-0.1-1-0.4-1.4c-0.3-0.3-0.6-0.6-0.9-0.8c-0.3-0.2-0.5-0.4-0.7-0.4c-0.5,1.3-1,2.5-1.6,3.7
				s-1.1,2.2-1.4,2.8l-0.3-0.6c1.1-2.1,2-4.3,2.8-6.5c-0.2-0.2-0.3-0.5-0.3-0.8c0-0.4,0.1-0.8,0.3-1.2c0.2-0.4,0.4-0.7,0.6-0.9
				c0.2-0.2,0.4-0.3,0.6-0.3c0.3,0,0.5,0.3,0.5,0.8c0,0.1-0.1,0.3-0.2,0.6c-0.1,0.3-0.2,0.5-0.2,0.7s0.1,0.4,0.3,0.6
				s0.5,0.4,0.9,0.7c0.7,0.5,1.3,1,1.7,1.5s0.6,1.1,0.6,1.9c0,0.5-0.1,1-0.2,1.5c-0.2,0.5-0.4,1.1-0.7,1.9c-0.5,1.1-0.8,1.9-0.8,2.4
				c0,0.7,0.3,1,1,1s1.4-0.3,2.2-0.8s1.5-1.2,2.2-2s1.1-1.6,1.4-2.2l0.4,0.3c-0.7,1.6-1.7,3-3.1,4.2c-1.3,1.2-2.7,1.8-4.1,1.8
				C188.4,29.8,187.8,29.6,187.3,29.2z"/>
		</g>
		<g class="st71">
			<path class="st70" d="M5.8,39.7c0-0.1,0.1-0.2,0.2-0.3c0.1-0.1,0.2-0.1,0.3-0.1c0.2,0,0.3,0.1,0.4,0.3l2.6,5.2l2.6-5.2
				c0.1-0.2,0.2-0.3,0.4-0.3c0.1,0,0.2,0,0.3,0.1c0.1,0.1,0.2,0.2,0.2,0.3c0,0.1,0,0.2-0.1,0.3l-2.9,5.6c0,0.1,0,0.1,0,0.1v3.6
				c0,0.1,0,0.2-0.1,0.3c-0.1,0.1-0.2,0.1-0.3,0.1c-0.1,0-0.2,0-0.3-0.1s-0.1-0.2-0.1-0.3v-3.6c0,0,0-0.1,0-0.1L5.9,40
				C5.9,39.9,5.8,39.8,5.8,39.7z"/>
			<path class="st70" d="M12.3,47.1v-1.5c0-0.7,0.3-1.3,0.8-1.9c0.5-0.5,1.2-0.8,1.9-0.8c0.7,0,1.4,0.3,1.9,0.8
				c0.5,0.5,0.8,1.1,0.8,1.9v1.5c0,0.7-0.3,1.3-0.8,1.9c-0.5,0.5-1.2,0.8-1.9,0.8c-0.7,0-1.3-0.3-1.9-0.8
				C12.6,48.4,12.3,47.8,12.3,47.1z M13.2,47.1c0,0.5,0.2,0.9,0.5,1.3c0.3,0.4,0.8,0.6,1.2,0.6c0.5,0,0.9-0.2,1.3-0.6
				c0.3-0.4,0.5-0.8,0.5-1.3v-1.5c0-0.5-0.2-0.9-0.5-1.2c-0.4-0.4-0.8-0.5-1.3-0.5s-0.9,0.2-1.2,0.5c-0.3,0.4-0.5,0.8-0.5,1.2V47.1z
				"/>
			<path class="st70" d="M19.1,47.1v-3.8c0-0.1,0-0.2,0.1-0.2c0.1-0.1,0.2-0.1,0.3-0.1c0.1,0,0.2,0,0.3,0.1c0.1,0.1,0.1,0.2,0.1,0.2
				v3.8c0,0.5,0.2,0.9,0.5,1.3s0.8,0.6,1.2,0.6c0.5,0,0.9-0.2,1.2-0.6s0.5-0.8,0.5-1.3v-3.8c0-0.1,0-0.2,0.1-0.2
				C23.8,43,24,43,24.1,43c0.1,0,0.2,0,0.3,0.1c0.1,0.1,0.1,0.1,0.1,0.2v3.8c0,0.7-0.3,1.3-0.8,1.9c-0.5,0.5-1.2,0.8-1.9,0.8
				c-0.7,0-1.4-0.3-1.9-0.8C19.4,48.4,19.1,47.8,19.1,47.1z"/>
			<path class="st70" d="M26.2,49.3v-6c0-0.1,0-0.2,0.1-0.2s0.2-0.1,0.3-0.1c0.1,0,0.2,0,0.3,0.1c0.1,0.1,0.1,0.1,0.1,0.2V44
				c0.2-0.3,0.4-0.6,0.7-0.8c0.3-0.2,0.7-0.3,1.1-0.3h0.5c0.1,0,0.2,0,0.3,0.1c0.1,0.1,0.1,0.2,0.1,0.3c0,0.1,0,0.2-0.1,0.3
				c-0.1,0.1-0.2,0.1-0.3,0.1H29c-0.5,0-0.9,0.2-1.3,0.6c-0.4,0.4-0.6,0.9-0.6,1.5v3.5c0,0.1,0,0.2-0.1,0.3
				c-0.1,0.1-0.2,0.1-0.3,0.1c-0.1,0-0.2,0-0.3-0.1C26.3,49.5,26.2,49.4,26.2,49.3z"/>
			<path class="st70" d="M33.2,47.2c0-0.3,0.2-0.5,0.5-0.5c0.3,0,0.5,0.1,0.5,0.4c0,0.5,0.2,1,0.5,1.3c0.4,0.3,0.9,0.5,1.5,0.5
				c0.6,0,1.1-0.2,1.5-0.5c0.3-0.4,0.5-0.9,0.5-1.6v-6.5h-2c-0.1,0-0.2,0-0.3-0.1c-0.1-0.1-0.1-0.2-0.1-0.3c0-0.1,0-0.2,0.1-0.3
				c0.1-0.1,0.1-0.1,0.3-0.1h2.5c0.3,0,0.4,0.1,0.4,0.4v7c0,1-0.3,1.8-0.8,2.3c-0.5,0.5-1.2,0.7-2.1,0.7c-0.9,0-1.6-0.2-2.2-0.7
				C33.5,48.6,33.2,48,33.2,47.2z"/>
			<path class="st70" d="M40.4,47.9c0-0.7,0.3-1.3,0.8-1.5c0.6-0.3,1.4-0.4,2.5-0.4h0.7v-0.3c0-0.5-0.1-1-0.4-1.3
				c-0.3-0.4-0.7-0.6-1.3-0.6c-0.4,0-0.7,0.1-1,0.2c-0.3,0.1-0.5,0.2-0.5,0.2c-0.1,0-0.2-0.1-0.3-0.2c-0.1-0.1-0.1-0.2-0.1-0.3
				c0-0.2,0.2-0.3,0.6-0.5c0.4-0.2,0.8-0.2,1.3-0.2c0.9,0,1.5,0.3,1.9,0.8c0.4,0.5,0.6,1.2,0.6,2v3.7c0,0.1,0,0.2-0.1,0.3
				c-0.1,0.1-0.2,0.1-0.3,0.1c-0.1,0-0.2,0-0.3-0.1c-0.1-0.1-0.1-0.2-0.1-0.3v-0.6c-0.6,0.7-1.3,1.1-2.1,1.1c-0.6,0-1-0.2-1.4-0.5
				C40.6,49,40.4,48.5,40.4,47.9z M41.4,47.8c0,0.4,0.1,0.7,0.3,0.9c0.2,0.2,0.5,0.3,0.9,0.3c0.4,0,0.9-0.2,1.3-0.5
				c0.4-0.3,0.6-0.7,0.6-1v-0.9h-0.6c-0.4,0-0.7,0-1,0c-0.3,0-0.5,0.1-0.8,0.2c-0.3,0.1-0.4,0.2-0.6,0.4S41.4,47.5,41.4,47.8z"/>
			<path class="st70" d="M47.1,52.6v-9.3c0-0.1,0-0.2,0.1-0.2s0.2-0.1,0.3-0.1c0.1,0,0.2,0,0.3,0.1c0.1,0.1,0.1,0.1,0.1,0.2V44
				c0.2-0.3,0.4-0.6,0.7-0.8c0.3-0.2,0.7-0.3,1.1-0.3c0.7,0,1.3,0.3,1.8,0.8c0.5,0.5,0.7,1.1,0.7,1.9v1.5c0,0.7-0.3,1.3-0.8,1.9
				c-0.5,0.5-1.1,0.8-1.7,0.8c-0.4,0-0.8-0.1-1.1-0.3c-0.3-0.2-0.6-0.5-0.8-0.8v3.9c0,0.1,0,0.2-0.1,0.2c-0.1,0.1-0.2,0.1-0.3,0.1
				c-0.1,0-0.2,0-0.3-0.1C47.2,52.7,47.1,52.7,47.1,52.6z M48,47.5c0,0.3,0.2,0.5,0.5,0.9c0.4,0.3,0.8,0.5,1.2,0.5
				c0.5,0,0.9-0.2,1.2-0.6s0.5-0.8,0.5-1.3v-1.5c0-0.5-0.2-0.9-0.5-1.2c-0.4-0.4-0.8-0.5-1.3-0.5c-0.5,0-0.9,0.2-1.2,0.5
				C48.2,44.6,48,45,48,45.5V47.5z"/>
			<path class="st70" d="M53.5,47.9c0-0.7,0.3-1.3,0.8-1.5c0.6-0.3,1.4-0.4,2.5-0.4h0.7v-0.3c0-0.5-0.1-1-0.4-1.3
				c-0.3-0.4-0.7-0.6-1.3-0.6c-0.4,0-0.7,0.1-1,0.2c-0.3,0.1-0.5,0.2-0.5,0.2c-0.1,0-0.2-0.1-0.3-0.2C54,43.8,54,43.7,54,43.6
				c0-0.2,0.2-0.3,0.6-0.5c0.4-0.2,0.8-0.2,1.3-0.2c0.9,0,1.5,0.3,1.9,0.8c0.4,0.5,0.6,1.2,0.6,2v3.7c0,0.1,0,0.2-0.1,0.3
				c-0.1,0.1-0.2,0.1-0.3,0.1c-0.1,0-0.2,0-0.3-0.1c-0.1-0.1-0.1-0.2-0.1-0.3v-0.6c-0.6,0.7-1.3,1.1-2.1,1.1c-0.6,0-1-0.2-1.4-0.5
				C53.7,49,53.5,48.5,53.5,47.9z M54.4,47.8c0,0.4,0.1,0.7,0.3,0.9c0.2,0.2,0.5,0.3,0.9,0.3c0.4,0,0.9-0.2,1.3-0.5
				c0.4-0.3,0.6-0.7,0.6-1v-0.9h-0.6c-0.4,0-0.7,0-1,0c-0.3,0-0.5,0.1-0.8,0.2c-0.3,0.1-0.4,0.2-0.6,0.4S54.4,47.5,54.4,47.8z"/>
			<path class="st70" d="M60.2,49.3v-6c0-0.1,0-0.2,0.1-0.2c0.1-0.1,0.2-0.1,0.3-0.1c0.1,0,0.2,0,0.3,0.1c0.1,0.1,0.1,0.1,0.1,0.2
				V44c0.2-0.3,0.4-0.6,0.7-0.8c0.3-0.2,0.7-0.3,1.2-0.3c0.7,0,1.3,0.3,1.8,0.8c0.5,0.5,0.7,1.1,0.7,1.9v3.8c0,0.1,0,0.2-0.1,0.3
				s-0.2,0.1-0.3,0.1c-0.1,0-0.2,0-0.3-0.1c-0.1-0.1-0.1-0.2-0.1-0.3v-3.8c0-0.5-0.2-0.9-0.5-1.2c-0.3-0.4-0.8-0.5-1.2-0.5
				c-0.4,0-0.8,0.2-1.2,0.5c-0.3,0.3-0.5,0.8-0.5,1.3v3.8c0,0.1,0,0.2-0.1,0.3c-0.1,0.1-0.2,0.1-0.3,0.1c-0.1,0-0.2,0-0.3-0.1
				C60.2,49.5,60.2,49.4,60.2,49.3z"/>
			<path class="st70" d="M70,40.8c-0.1-0.1-0.2-0.3-0.2-0.4c0-0.2,0.1-0.3,0.2-0.4c0.1-0.1,0.3-0.2,0.5-0.2c0.2,0,0.3,0.1,0.4,0.2
				c0.1,0.1,0.2,0.2,0.2,0.4c0,0.2-0.1,0.3-0.2,0.4c-0.1,0.1-0.3,0.2-0.4,0.2C70.3,41,70.1,40.9,70,40.8z M70,49.3v-6
				c0-0.1,0-0.2,0.1-0.2c0.1-0.1,0.2-0.1,0.3-0.1c0.1,0,0.2,0,0.3,0.1s0.1,0.1,0.1,0.2v6c0,0.1,0,0.2-0.1,0.3
				c-0.1,0.1-0.2,0.1-0.3,0.1c-0.1,0-0.2,0-0.3-0.1C70,49.5,70,49.4,70,49.3z"/>
			<path class="st70" d="M72.7,47.6v-7.4c0-0.1,0-0.2,0.1-0.2c0.1-0.1,0.2-0.1,0.3-0.1c0.1,0,0.2,0,0.3,0.1c0.1,0.1,0.1,0.1,0.1,0.2
				V43h1.8c0.1,0,0.2,0,0.2,0.1c0.1,0.1,0.1,0.2,0.1,0.3c0,0.1,0,0.2-0.1,0.3c-0.1,0.1-0.1,0.1-0.2,0.1h-1.8v3.8
				c0,0.5,0.1,0.8,0.3,1c0.2,0.2,0.5,0.3,1,0.3h0.4c0.1,0,0.2,0,0.3,0.1c0.1,0.1,0.1,0.2,0.1,0.3s0,0.2-0.1,0.3
				c-0.1,0.1-0.2,0.1-0.3,0.1h-0.4C73.4,49.7,72.7,49,72.7,47.6z"/>
			<path class="st70" d="M76.9,40.8c-0.1-0.1-0.2-0.3-0.2-0.4c0-0.2,0.1-0.3,0.2-0.4c0.1-0.1,0.3-0.2,0.5-0.2c0.2,0,0.3,0.1,0.4,0.2
				c0.1,0.1,0.2,0.2,0.2,0.4c0,0.2-0.1,0.3-0.2,0.4c-0.1,0.1-0.3,0.2-0.4,0.2C77.2,41,77,40.9,76.9,40.8z M76.9,49.3v-6
				c0-0.1,0-0.2,0.1-0.2c0.1-0.1,0.2-0.1,0.3-0.1c0.1,0,0.2,0,0.3,0.1s0.1,0.1,0.1,0.2v6c0,0.1,0,0.2-0.1,0.3
				c-0.1,0.1-0.2,0.1-0.3,0.1c-0.1,0-0.2,0-0.3-0.1C77,49.5,76.9,49.4,76.9,49.3z"/>
			<path class="st70" d="M79.6,49.3v-6c0-0.1,0-0.2,0.1-0.2c0.1-0.1,0.2-0.1,0.3-0.1c0.1,0,0.2,0,0.3,0.1c0.1,0.1,0.1,0.1,0.1,0.2
				V44c0.2-0.3,0.4-0.6,0.7-0.8c0.3-0.2,0.7-0.3,1.2-0.3c0.7,0,1.3,0.3,1.8,0.8c0.5,0.5,0.7,1.1,0.7,1.9v3.8c0,0.1,0,0.2-0.1,0.3
				s-0.2,0.1-0.3,0.1c-0.1,0-0.2,0-0.3-0.1S84,49.4,84,49.3v-3.8c0-0.5-0.2-0.9-0.5-1.2c-0.3-0.4-0.8-0.5-1.2-0.5
				c-0.4,0-0.8,0.2-1.2,0.5c-0.3,0.3-0.5,0.8-0.5,1.3v3.8c0,0.1,0,0.2-0.1,0.3c-0.1,0.1-0.2,0.1-0.3,0.1c-0.1,0-0.2,0-0.3-0.1
				C79.7,49.5,79.6,49.4,79.6,49.3z"/>
			<path class="st70" d="M86.4,47.1v-1.6c0-0.7,0.3-1.3,0.8-1.8c0.5-0.5,1.2-0.8,1.9-0.8c0.7,0,1.3,0.2,1.9,0.7
				c0.5,0.5,0.8,1.1,0.8,1.8c0,0.3,0,0.5-0.1,0.6c-0.1,0.2-0.2,0.3-0.3,0.3c-0.1,0.1-0.3,0.1-0.4,0.1c-0.1,0-0.3,0-0.5,0h-3.2v0.5
				c0,0.6,0.2,1,0.6,1.3c0.4,0.3,0.9,0.5,1.5,0.5c0.3,0,0.6,0,0.8-0.1c0.2-0.1,0.4-0.2,0.6-0.3c0.1-0.1,0.2-0.1,0.3-0.1
				c0.1,0,0.2,0,0.3,0.1c0.1,0.1,0.1,0.2,0.1,0.3c0,0.2-0.2,0.4-0.6,0.6c-0.4,0.2-0.9,0.3-1.5,0.3c-0.9,0-1.6-0.2-2.2-0.7
				C86.7,48.5,86.4,47.9,86.4,47.1z M87.3,45.9h2.8c0.3,0,0.5,0,0.6-0.1c0.1-0.1,0.1-0.2,0.1-0.4c0-0.5-0.2-0.9-0.5-1.2
				c-0.3-0.4-0.8-0.5-1.3-0.5c-0.5,0-0.9,0.2-1.3,0.5c-0.3,0.3-0.5,0.7-0.5,1.2V45.9z"/>
			<path class="st70" d="M93.1,49.3v-6c0-0.1,0-0.2,0.1-0.2c0.1-0.1,0.2-0.1,0.3-0.1c0.1,0,0.2,0,0.3,0.1c0.1,0.1,0.1,0.1,0.1,0.2
				V44c0.2-0.3,0.4-0.6,0.8-0.8c0.3-0.2,0.7-0.3,1.1-0.3h0.5c0.1,0,0.2,0,0.3,0.1c0.1,0.1,0.1,0.2,0.1,0.3c0,0.1,0,0.2-0.1,0.3
				c-0.1,0.1-0.2,0.1-0.3,0.1h-0.5c-0.5,0-0.9,0.2-1.3,0.6c-0.4,0.4-0.6,0.9-0.6,1.5v3.5c0,0.1,0,0.2-0.1,0.3
				c-0.1,0.1-0.2,0.1-0.3,0.1c-0.1,0-0.2,0-0.3-0.1C93.2,49.5,93.1,49.4,93.1,49.3z"/>
			<path class="st70" d="M97.3,47.9c0-0.7,0.3-1.3,0.8-1.5c0.6-0.3,1.4-0.4,2.5-0.4h0.7v-0.3c0-0.5-0.1-1-0.4-1.3
				c-0.3-0.4-0.7-0.6-1.3-0.6c-0.4,0-0.7,0.1-1,0.2c-0.3,0.1-0.5,0.2-0.5,0.2c-0.1,0-0.2-0.1-0.3-0.2c-0.1-0.1-0.1-0.2-0.1-0.3
				c0-0.2,0.2-0.3,0.6-0.5c0.4-0.2,0.8-0.2,1.3-0.2c0.9,0,1.5,0.3,1.9,0.8c0.4,0.5,0.6,1.2,0.6,2v3.7c0,0.1,0,0.2-0.1,0.3
				c-0.1,0.1-0.2,0.1-0.3,0.1c-0.1,0-0.2,0-0.3-0.1c-0.1-0.1-0.1-0.2-0.1-0.3v-0.6c-0.6,0.7-1.3,1.1-2.1,1.1c-0.6,0-1-0.2-1.4-0.5
				C97.5,49,97.3,48.5,97.3,47.9z M98.2,47.8c0,0.4,0.1,0.7,0.3,0.9c0.2,0.2,0.5,0.3,0.9,0.3c0.4,0,0.9-0.2,1.3-0.5
				c0.4-0.3,0.6-0.7,0.6-1v-0.9h-0.6c-0.4,0-0.7,0-1,0c-0.3,0-0.5,0.1-0.8,0.2c-0.3,0.1-0.4,0.2-0.6,0.4S98.2,47.5,98.2,47.8z"/>
			<path class="st70" d="M104,49.3v-6c0-0.1,0-0.2,0.1-0.2c0.1-0.1,0.2-0.1,0.3-0.1c0.1,0,0.2,0,0.3,0.1c0.1,0.1,0.1,0.1,0.1,0.2V44
				c0.2-0.3,0.4-0.6,0.8-0.8c0.3-0.2,0.7-0.3,1.1-0.3h0.5c0.1,0,0.2,0,0.3,0.1c0.1,0.1,0.1,0.2,0.1,0.3c0,0.1,0,0.2-0.1,0.3
				c-0.1,0.1-0.2,0.1-0.3,0.1h-0.5c-0.5,0-0.9,0.2-1.3,0.6c-0.4,0.4-0.6,0.9-0.6,1.5v3.5c0,0.1,0,0.2-0.1,0.3
				c-0.1,0.1-0.2,0.1-0.3,0.1c-0.1,0-0.2,0-0.3-0.1C104,49.5,104,49.4,104,49.3z"/>
			<path class="st70" d="M108,43.3c0-0.1,0.1-0.2,0.2-0.3c0.1-0.1,0.2-0.1,0.4-0.1c0.2,0,0.3,0.1,0.3,0.2l1.9,5.2l1.8-5.2
				c0.1-0.1,0.2-0.2,0.3-0.2c0.1,0,0.2,0,0.4,0.1c0.1,0.1,0.2,0.2,0.2,0.3c0,0.1,0,0.1,0,0.1l-2.2,5.9l-0.3,0.7
				c0,0.1-0.1,0.3-0.3,0.7c-0.1,0.3-0.3,0.6-0.3,0.7L110,52c-0.2,0.2-0.3,0.4-0.5,0.5c-0.1,0.1-0.3,0.2-0.5,0.3
				c-0.2,0.1-0.4,0.1-0.6,0.1c-0.3,0-0.4-0.1-0.4-0.4c0-0.3,0.1-0.4,0.3-0.4c0.4,0,0.8-0.3,1.2-0.8c0.4-0.5,0.7-1.2,0.8-1.9
				l-2.3-5.9C108,43.4,108,43.3,108,43.3z"/>
			<path class="st70" d="M117,47.9c0-0.7,0.3-1.3,0.8-1.5c0.6-0.3,1.4-0.4,2.5-0.4h0.7v-0.3c0-0.5-0.1-1-0.4-1.3
				c-0.3-0.4-0.7-0.6-1.3-0.6c-0.4,0-0.7,0.1-1,0.2c-0.3,0.1-0.5,0.2-0.5,0.2c-0.1,0-0.2-0.1-0.3-0.2c-0.1-0.1-0.1-0.2-0.1-0.3
				c0-0.2,0.2-0.3,0.6-0.5c0.4-0.2,0.8-0.2,1.3-0.2c0.9,0,1.5,0.3,1.9,0.8c0.4,0.5,0.6,1.2,0.6,2v3.7c0,0.1,0,0.2-0.1,0.3
				c-0.1,0.1-0.2,0.1-0.3,0.1c-0.1,0-0.2,0-0.3-0.1c-0.1-0.1-0.1-0.2-0.1-0.3v-0.6c-0.6,0.7-1.3,1.1-2.1,1.1c-0.6,0-1-0.2-1.4-0.5
				C117.2,49,117,48.5,117,47.9z M117.9,47.8c0,0.4,0.1,0.7,0.3,0.9s0.5,0.3,0.9,0.3c0.4,0,0.9-0.2,1.3-0.5c0.4-0.3,0.6-0.7,0.6-1
				v-0.9h-0.6c-0.4,0-0.7,0-1,0c-0.3,0-0.5,0.1-0.8,0.2c-0.3,0.1-0.4,0.2-0.6,0.4C118,47.3,117.9,47.5,117.9,47.8z"/>
			<path class="st70" d="M123.2,48.7c0-0.1,0-0.2,0.1-0.3c0.1-0.1,0.1-0.1,0.2-0.1c0.1,0,0.2,0.1,0.3,0.2c0.1,0.1,0.3,0.2,0.6,0.3
				c0.3,0.1,0.6,0.2,0.9,0.2c0.5,0,0.9-0.1,1.1-0.3c0.2-0.2,0.4-0.4,0.4-0.7c0-0.3-0.1-0.6-0.4-0.8c-0.2-0.2-0.5-0.4-0.9-0.5
				s-0.7-0.2-1-0.3c-0.3-0.1-0.6-0.3-0.9-0.5c-0.2-0.3-0.4-0.6-0.4-1c0-0.5,0.2-1,0.6-1.4c0.4-0.4,0.9-0.6,1.7-0.6
				c0.5,0,0.9,0.1,1.3,0.2c0.4,0.1,0.6,0.3,0.6,0.5c0,0.1,0,0.2-0.1,0.3c-0.1,0.1-0.2,0.2-0.3,0.2c0,0-0.2-0.1-0.5-0.2
				c-0.3-0.1-0.6-0.2-1-0.2c-0.5,0-0.8,0.1-1.1,0.3c-0.2,0.2-0.4,0.5-0.4,0.7c0,0.3,0.1,0.5,0.4,0.7c0.2,0.2,0.5,0.3,0.9,0.4
				c0.3,0.1,0.7,0.2,1,0.3c0.3,0.1,0.6,0.3,0.9,0.6c0.2,0.3,0.4,0.7,0.4,1.2c0,0.6-0.2,1-0.6,1.3c-0.4,0.3-1,0.5-1.7,0.5
				c-0.6,0-1.1-0.1-1.6-0.3C123.4,49.2,123.2,49,123.2,48.7z"/>
			<path class="st70" d="M128.7,48.7c0-0.1,0-0.2,0.1-0.3c0.1-0.1,0.1-0.1,0.2-0.1c0.1,0,0.2,0.1,0.3,0.2c0.1,0.1,0.3,0.2,0.6,0.3
				c0.3,0.1,0.6,0.2,0.9,0.2c0.5,0,0.9-0.1,1.1-0.3c0.2-0.2,0.4-0.4,0.4-0.7c0-0.3-0.1-0.6-0.4-0.8c-0.2-0.2-0.5-0.4-0.9-0.5
				s-0.7-0.2-1-0.3c-0.3-0.1-0.6-0.3-0.9-0.5c-0.2-0.3-0.4-0.6-0.4-1c0-0.5,0.2-1,0.6-1.4c0.4-0.4,0.9-0.6,1.7-0.6
				c0.5,0,0.9,0.1,1.3,0.2c0.4,0.1,0.6,0.3,0.6,0.5c0,0.1,0,0.2-0.1,0.3c-0.1,0.1-0.2,0.2-0.3,0.2c0,0-0.2-0.1-0.5-0.2
				c-0.3-0.1-0.6-0.2-1-0.2c-0.5,0-0.8,0.1-1.1,0.3c-0.2,0.2-0.4,0.5-0.4,0.7c0,0.3,0.1,0.5,0.4,0.7c0.2,0.2,0.5,0.3,0.9,0.4
				c0.3,0.1,0.7,0.2,1,0.3c0.3,0.1,0.6,0.3,0.9,0.6c0.2,0.3,0.4,0.7,0.4,1.2c0,0.6-0.2,1-0.6,1.3c-0.4,0.3-1,0.5-1.7,0.5
				c-0.6,0-1.1-0.1-1.6-0.3S128.7,49,128.7,48.7z"/>
			<path class="st70" d="M134.5,40.8c-0.1-0.1-0.2-0.3-0.2-0.4c0-0.2,0.1-0.3,0.2-0.4c0.1-0.1,0.3-0.2,0.5-0.2
				c0.2,0,0.3,0.1,0.4,0.2c0.1,0.1,0.2,0.2,0.2,0.4c0,0.2-0.1,0.3-0.2,0.4c-0.1,0.1-0.3,0.2-0.4,0.2C134.8,41,134.7,40.9,134.5,40.8
				z M134.5,49.3v-6c0-0.1,0-0.2,0.1-0.2c0.1-0.1,0.2-0.1,0.3-0.1c0.1,0,0.2,0,0.3,0.1c0.1,0.1,0.1,0.1,0.1,0.2v6
				c0,0.1,0,0.2-0.1,0.3c-0.1,0.1-0.2,0.1-0.3,0.1c-0.1,0-0.2,0-0.3-0.1C134.6,49.5,134.5,49.4,134.5,49.3z"/>
			<path class="st70" d="M136.8,48.7c0-0.1,0-0.2,0.1-0.3c0.1-0.1,0.1-0.1,0.2-0.1c0.1,0,0.2,0.1,0.3,0.2c0.1,0.1,0.3,0.2,0.6,0.3
				c0.3,0.1,0.6,0.2,0.9,0.2c0.5,0,0.9-0.1,1.1-0.3c0.2-0.2,0.4-0.4,0.4-0.7c0-0.3-0.1-0.6-0.4-0.8c-0.2-0.2-0.5-0.4-0.9-0.5
				s-0.7-0.2-1-0.3c-0.3-0.1-0.6-0.3-0.9-0.5c-0.2-0.3-0.4-0.6-0.4-1c0-0.5,0.2-1,0.6-1.4c0.4-0.4,0.9-0.6,1.7-0.6
				c0.5,0,0.9,0.1,1.3,0.2c0.4,0.1,0.6,0.3,0.6,0.5c0,0.1,0,0.2-0.1,0.3c-0.1,0.1-0.2,0.2-0.3,0.2c0,0-0.2-0.1-0.5-0.2
				c-0.3-0.1-0.6-0.2-1-0.2c-0.5,0-0.8,0.1-1.1,0.3c-0.2,0.2-0.4,0.5-0.4,0.7c0,0.3,0.1,0.5,0.4,0.7c0.2,0.2,0.5,0.3,0.9,0.4
				c0.3,0.1,0.7,0.2,1,0.3c0.3,0.1,0.6,0.3,0.9,0.6c0.2,0.3,0.4,0.7,0.4,1.2c0,0.6-0.2,1-0.6,1.3c-0.4,0.3-1,0.5-1.7,0.5
				c-0.6,0-1.1-0.1-1.6-0.3S136.8,49,136.8,48.7z"/>
			<path class="st70" d="M142.7,47.6v-7.4c0-0.1,0-0.2,0.1-0.2c0.1-0.1,0.2-0.1,0.3-0.1c0.1,0,0.2,0,0.3,0.1
				c0.1,0.1,0.1,0.1,0.1,0.2V43h1.8c0.1,0,0.2,0,0.2,0.1c0.1,0.1,0.1,0.2,0.1,0.3c0,0.1,0,0.2-0.1,0.3c-0.1,0.1-0.1,0.1-0.2,0.1
				h-1.8v3.8c0,0.5,0.1,0.8,0.3,1c0.2,0.2,0.5,0.3,1,0.3h0.4c0.1,0,0.2,0,0.3,0.1c0.1,0.1,0.1,0.2,0.1,0.3s0,0.2-0.1,0.3
				c-0.1,0.1-0.2,0.1-0.3,0.1h-0.4C143.4,49.7,142.7,49,142.7,47.6z"/>
			<path class="st70" d="M146.4,47.9c0-0.7,0.3-1.3,0.8-1.5c0.6-0.3,1.4-0.4,2.5-0.4h0.7v-0.3c0-0.5-0.1-1-0.4-1.3
				c-0.3-0.4-0.7-0.6-1.3-0.6c-0.4,0-0.7,0.1-1,0.2c-0.3,0.1-0.5,0.2-0.5,0.2c-0.1,0-0.2-0.1-0.3-0.2c-0.1-0.1-0.1-0.2-0.1-0.3
				c0-0.2,0.2-0.3,0.6-0.5c0.4-0.2,0.8-0.2,1.3-0.2c0.9,0,1.5,0.3,1.9,0.8c0.4,0.5,0.6,1.2,0.6,2v3.7c0,0.1,0,0.2-0.1,0.3
				c-0.1,0.1-0.2,0.1-0.3,0.1c-0.1,0-0.2,0-0.3-0.1c-0.1-0.1-0.1-0.2-0.1-0.3v-0.6c-0.6,0.7-1.3,1.1-2.1,1.1c-0.6,0-1-0.2-1.4-0.5
				C146.6,49,146.4,48.5,146.4,47.9z M147.3,47.8c0,0.4,0.1,0.7,0.3,0.9c0.2,0.2,0.5,0.3,0.9,0.3c0.4,0,0.9-0.2,1.3-0.5
				c0.4-0.3,0.6-0.7,0.6-1v-0.9h-0.6c-0.4,0-0.7,0-1,0c-0.3,0-0.5,0.1-0.8,0.2c-0.3,0.1-0.4,0.2-0.6,0.4
				C147.4,47.3,147.3,47.5,147.3,47.8z"/>
			<path class="st70" d="M153.1,49.3v-6c0-0.1,0-0.2,0.1-0.2c0.1-0.1,0.2-0.1,0.3-0.1c0.1,0,0.2,0,0.3,0.1c0.1,0.1,0.1,0.1,0.1,0.2
				V44c0.2-0.3,0.4-0.6,0.7-0.8c0.3-0.2,0.7-0.3,1.2-0.3c0.7,0,1.3,0.3,1.8,0.8c0.5,0.5,0.8,1.1,0.8,1.9v3.8c0,0.1,0,0.2-0.1,0.3
				s-0.2,0.1-0.3,0.1c-0.1,0-0.2,0-0.3-0.1c-0.1-0.1-0.1-0.2-0.1-0.3v-3.8c0-0.5-0.2-0.9-0.5-1.2c-0.3-0.4-0.8-0.5-1.2-0.5
				c-0.4,0-0.8,0.2-1.2,0.5c-0.3,0.3-0.5,0.8-0.5,1.3v3.8c0,0.1,0,0.2-0.1,0.3c-0.1,0.1-0.2,0.1-0.3,0.1c-0.1,0-0.2,0-0.3-0.1
				C153.1,49.5,153.1,49.4,153.1,49.3z"/>
			<path class="st70" d="M160.1,47.6v-7.4c0-0.1,0-0.2,0.1-0.2c0.1-0.1,0.2-0.1,0.3-0.1c0.1,0,0.2,0,0.3,0.1C161,40,161,40,161,40.1
				V43h1.8c0.1,0,0.2,0,0.2,0.1c0.1,0.1,0.1,0.2,0.1,0.3c0,0.1,0,0.2-0.1,0.3c-0.1,0.1-0.1,0.1-0.2,0.1H161v3.8c0,0.5,0.1,0.8,0.3,1
				c0.2,0.2,0.5,0.3,1,0.3h0.4c0.1,0,0.2,0,0.3,0.1c0.1,0.1,0.1,0.2,0.1,0.3s0,0.2-0.1,0.3c-0.1,0.1-0.2,0.1-0.3,0.1h-0.4
				C160.8,49.7,160.1,49,160.1,47.6z"/>
			<path class="st70" d="M164.2,49c0-0.2,0.1-0.4,0.2-0.5c0.1-0.1,0.3-0.2,0.5-0.2c0.2,0,0.3,0.1,0.4,0.2c0.1,0.1,0.2,0.3,0.2,0.5
				c0,0.2-0.1,0.3-0.2,0.5c-0.1,0.1-0.3,0.2-0.4,0.2c-0.2,0-0.4-0.1-0.5-0.2C164.3,49.4,164.2,49.2,164.2,49z M164.3,39.7
				c0-0.2,0.1-0.3,0.2-0.4c0.1-0.1,0.2-0.1,0.4-0.1c0.1,0,0.3,0,0.4,0.1c0.1,0.1,0.2,0.2,0.2,0.4c0,0.8,0,2-0.1,3.7
				s-0.1,2.9-0.1,3.7c0,0.1,0,0.2-0.1,0.2c-0.1,0.1-0.2,0.1-0.3,0.1c-0.2,0-0.4-0.1-0.4-0.3c0-0.8,0-2-0.1-3.7
				C164.4,41.7,164.3,40.4,164.3,39.7z"/>
		</g>
	</g>
</g>
</svg>
